<?xml version="1.0" encoding="utf-8"?>
<svg viewBox="151.33 79.714 22.141 22.173" xmlns="http://www.w3.org/2000/svg">
  <path class="cls-1" d="M 162.4 101.886 C 161.831 101.88 161.263 101.834 160.7 101.746 L 160.14 101.656 L 159.75 98.816 C 159.37 98.688 158.999 98.534 158.64 98.356 L 156.33 100.076 L 155.88 99.746 C 154.954 99.076 154.141 98.262 153.47 97.336 L 153.14 96.886 L 154.89 94.576 C 154.702 94.218 154.538 93.847 154.4 93.466 L 151.53 93.076 L 151.44 92.526 C 151.362 91.96 151.326 91.388 151.33 90.816 C 151.336 90.244 151.383 89.672 151.47 89.106 L 151.56 88.556 L 154.4 88.166 C 154.528 87.786 154.682 87.416 154.86 87.056 L 153.14 84.746 L 153.47 84.296 C 154.141 83.37 154.954 82.557 155.88 81.886 L 156.33 81.556 L 158.64 83.306 C 158.998 83.116 159.369 82.952 159.75 82.816 L 160.14 79.946 L 160.69 79.856 C 161.822 79.666 162.978 79.666 164.11 79.856 L 164.66 79.946 L 165.05 82.816 C 165.431 82.943 165.802 83.096 166.16 83.276 L 168.47 81.526 L 168.92 81.856 C 169.846 82.527 170.659 83.34 171.33 84.266 L 171.66 84.716 L 169.91 87.026 C 170.099 87.395 170.263 87.775 170.4 88.166 L 173.27 88.556 L 173.36 89.106 C 173.437 89.673 173.474 90.244 173.47 90.816 C 173.465 91.389 173.418 91.96 173.33 92.526 L 173.24 93.076 L 170.4 93.466 C 170.272 93.846 170.118 94.217 169.94 94.576 L 171.69 96.886 L 171.36 97.336 C 170.689 98.262 169.876 99.076 168.95 99.746 L 168.5 100.076 L 166.19 98.326 C 165.831 98.504 165.46 98.658 165.08 98.786 L 164.69 101.656 L 164.13 101.746 C 163.558 101.835 162.979 101.882 162.4 101.886 Z M 161.48 100.336 C 162.091 100.406 162.709 100.406 163.32 100.336 L 163.7 97.616 L 164.18 97.486 C 164.766 97.33 165.328 97.095 165.85 96.786 L 166.29 96.546 L 168.47 98.196 C 168.951 97.806 169.39 97.367 169.78 96.886 L 168.13 94.706 L 168.37 94.266 C 168.679 93.744 168.914 93.182 169.07 92.596 L 169.19 92.116 L 171.92 91.746 C 171.92 91.416 171.97 91.106 171.97 90.816 C 171.97 90.526 171.97 90.216 171.92 89.886 L 169.19 89.516 L 169.07 89.036 C 168.914 88.45 168.679 87.888 168.37 87.366 L 168.13 86.926 L 169.78 84.746 C 169.39 84.266 168.951 83.827 168.47 83.436 L 166.28 85.096 L 165.85 84.816 C 165.326 84.513 164.765 84.281 164.18 84.126 L 163.7 84.016 L 163.32 81.296 C 162.709 81.226 162.091 81.226 161.48 81.296 L 161.1 84.016 L 160.62 84.146 C 160.036 84.295 159.475 84.52 158.95 84.816 L 158.52 85.076 L 156.33 83.436 C 155.849 83.827 155.41 84.266 155.02 84.746 L 156.67 86.926 L 156.4 87.366 C 156.092 87.888 155.856 88.45 155.7 89.036 L 155.58 89.516 L 152.85 89.886 C 152.85 90.216 152.8 90.526 152.8 90.816 C 152.8 91.106 152.8 91.416 152.85 91.746 L 155.58 92.116 L 155.7 92.596 C 155.856 93.182 156.092 93.744 156.4 94.266 L 156.64 94.706 L 155.02 96.886 C 155.41 97.367 155.849 97.806 156.33 98.196 L 158.51 96.546 L 158.95 96.786 C 159.472 97.095 160.034 97.33 160.62 97.486 L 161.1 97.616 Z" style="stroke-width: 0px; stroke-opacity: 0; fill: rgb(255, 255, 255);"/>
  <path class="cls-1" d="M 162.4 95.706 C 158.636 95.706 156.283 91.631 158.165 88.371 C 160.047 85.111 164.753 85.111 166.635 88.371 C 167.064 89.115 167.29 89.958 167.29 90.816 C 167.285 93.515 165.098 95.701 162.4 95.706 Z M 162.4 87.426 C 159.79 87.426 158.159 90.251 159.464 92.511 C 160.769 94.771 164.031 94.771 165.336 92.511 C 165.633 91.996 165.79 91.411 165.79 90.816 C 165.79 88.944 164.272 87.426 162.4 87.426 Z" style="stroke-width: 0px; stroke-opacity: 0; fill: rgb(255, 255, 255);"/>
</svg>