<svg id="Ebene_1" data-name="Ebene 1" xmlns="http://www.w3.org/2000/svg" viewBox="0 0 28 28"><defs><style>.cls-1{fill:#f60;}.cls-2{fill:#383838;}</style></defs><circle class="cls-1" cx="5.5" cy="20" r="5.5"/><path class="cls-2" d="M15.75,3.5h8a.75.75,0,0,0,0-1.5h-8a.75.75,0,0,0,0,1.5Z"/><path class="cls-2" d="M23.75,6h-8a.75.75,0,0,0,0,1.5h8a.75.75,0,0,0,0-1.5Z"/><path class="cls-2" d="M23.75,10h-8a.75.75,0,0,0,0,1.5h8a.75.75,0,0,0,0-1.5Z"/><path class="cls-2" d="M11.49,15.5H23.75a.75.75,0,0,0,0-1.5H10A7.66,7.66,0,0,1,11.49,15.5Z"/><path class="cls-2" d="M23.75,19.5a.75.75,0,0,0,0-1.5h-11A7.35,7.35,0,0,1,13,19.5Z"/><path class="cls-2" d="M23.75,23.5a.75.75,0,0,0,0-1.5h-11a7.2,7.2,0,0,1-.59,1.5Z"/><rect class="cls-2" x="4" y="2" width="9.5" height="9.5" rx="0.75"/></svg>