<svg id="Ebene_1" data-name="Ebene 1" xmlns="http://www.w3.org/2000/svg" viewBox="0 0 28 28"><defs><style>.cls-1{fill:#fff;}</style></defs><path class="cls-1" d="M20.47,21.36h0a3.7,3.7,0,0,1-.94-.16v3.73a.5.5,0,0,1-.5.5H3a.5.5,0,0,1-.5-.5v-10a.51.51,0,0,1,.5-.5h8.73L12.52,13l.05-.11H7.5v-2a.51.51,0,0,1,.5-.5h5a.53.53,0,0,1,.17,0V9l-.17,0H8a2,2,0,0,0-2,2v2H3a2,2,0,0,0-2,2v10a2,2,0,0,0,2,2H19a2,2,0,0,0,2-2v-3.6a4.07,4.07,0,0,1-.5,0Z"/><path class="cls-1" d="M27.35,15.87l-1.18-2.1a6.45,6.45,0,0,1-.79-2.37,7.89,7.89,0,0,1-.05-.84h0V8.72A5.12,5.12,0,0,0,21.88,3.8V2.48a1.43,1.43,0,0,0-.37-1,1.39,1.39,0,0,0-.7-.42,1.26,1.26,0,0,0-.28,0h0a1.41,1.41,0,0,0-1.38,1.41V3.8a5.1,5.1,0,0,0-3.45,4.92v1.84a6.54,6.54,0,0,1-.84,3.21l-1.18,2.1a.35.35,0,0,0,0,.37.33.33,0,0,0,.29.19H27.06a.34.34,0,0,0,.17-.05.35.35,0,0,0,.13-.14.39.39,0,0,0,0-.18A.41.41,0,0,0,27.35,15.87ZM15.9,14.93l.24-.43a8.1,8.1,0,0,0,1-3.94V8.7a3.62,3.62,0,0,1,2.45-3.48,2.56,2.56,0,0,1,.92-.14,2.46,2.46,0,0,1,.86.14,3.6,3.6,0,0,1,2.44,3.5v1.84a8.06,8.06,0,0,0,1,3.95l.24.42Z"/><path class="cls-1" d="M20.5,18.86a2.16,2.16,0,0,0,1-.26l.38-.26a2.73,2.73,0,0,0,.79-1.1H18.3A2.41,2.41,0,0,0,20.5,18.86Z"/></svg>