<svg id="Ebene_1" data-name="Ebene 1" xmlns="http://www.w3.org/2000/svg" viewBox="0 0 34 28"><defs><style>.cls-1{fill:#383838;}</style></defs><g id="icon_sort" data-name="icon sort"><path id="Pfad_954" data-name="Pfad 954" class="cls-1" d="M13.59,18.61a.75.75,0,0,0,0-1.06.74.74,0,0,0-1.06,0L8.15,21.92V6.76a.75.75,0,1,0-1.5,0V21.92L2.28,17.55a.75.75,0,1,0-1.06,1.06l5.66,5.66a.75.75,0,0,0,1.06,0Z"/><path id="Pfad_955" data-name="Pfad 955" class="cls-1" d="M20.22,11.89a.77.77,0,0,0,0,1.07.75.75,0,0,0,1.06,0l4.38-4.38V23.74a.75.75,0,0,0,1.5,0V8.58L31.53,13a.75.75,0,0,0,1.06-1.06L26.94,6.23a.75.75,0,0,0-1.06,0Z"/><path class="cls-1" d="M21,7.5H11A.75.75,0,0,1,11,6H21a.75.75,0,0,1,0,1.5Z"/><path class="cls-1" d="M18,11.5H11A.75.75,0,0,1,11,10h7a.75.75,0,0,1,0,1.5Z"/><path class="cls-1" d="M23,15.5H11A.75.75,0,0,1,11,14H23a.75.75,0,0,1,0,1.5Z"/><path class="cls-1" d="M23,19.5H16A.75.75,0,0,1,16,18h7a.75.75,0,0,1,0,1.5Z"/><path class="cls-1" d="M23,23.5H13A.75.75,0,0,1,13,22H23a.75.75,0,0,1,0,1.5Z"/></g></svg>