<svg id="Ebene_1" data-name="Ebene 1" xmlns="http://www.w3.org/2000/svg" viewBox="0 0 28 28"><defs><style>.cls-1{fill:#fff;}</style></defs><path id="icon_hot_orange" class="cls-1" d="M15.28,16.32a11.41,11.41,0,0,1-3.21,7.22c.16-1.38.62-2.77.26-4.15-2.3,2.72-2.25,5.52-.58,8.53-6.21-3.25-7.93-8.31-6-13S8,8.78,7.68,7.62a5.59,5.59,0,0,1,1.69,4.21C13.05,6.47,12.59,3.26,12.56,2c3.35,1.25,5.17,4.62,6.22,7.74h0c.26-1.55-.56-2.94-1-4.36A15.51,15.51,0,0,1,24,17.87c-.15,4.53-3.67,7.94-7.49,10.13C18.63,24.07,18.93,19.49,15.28,16.32Z"/></svg>