<svg id="Ebene_1" data-name="Ebene 1" xmlns="http://www.w3.org/2000/svg" width="28" height="28" viewBox="0 0 28 28">
  <path id="icon_share_white" d="M19.13,15.28a3.88,3.88,0,0,0-3.29,1.87l-3.43-1.71a3.67,3.67,0,0,0,.11-2.57l3.69-1.53a3.83,3.83,0,1,0-.93-2.49A4,4,0,0,0,15.47,10l-3.69,1.53a3.85,3.85,0,1,0-.43,5.43l.22-.21,3.76,1.89a4.57,4.57,0,0,0-.05.52,3.86,3.86,0,1,0,3.86-3.86h0ZM16.82,8.85a2.31,2.31,0,1,1,.06.53,2.34,2.34,0,0,1-.06-.53ZM10,16a2.28,2.28,0,0,1-1.19.34,2.32,2.32,0,1,1,0-4.63h0A2.31,2.31,0,0,1,10,16Zm9.1,5.49a2.32,2.32,0,0,1-2.29-2.09,1.64,1.64,0,0,1,0-.23,2.32,2.32,0,1,1,2.31,2.32Z" fill="#fff"/>
</svg>
