<svg id="Ebene_1" data-name="Ebene 1" xmlns="http://www.w3.org/2000/svg" width="28" height="28" viewBox="0 0 28 28">
  <g id="icon_portfolio_plus_white">
    <g id="Gruppe_1307" data-name="Gruppe 1307">
      <g id="Gruppe_1306" data-name="Gruppe 1306">
        <path id="Pfad_882" data-name="Pfad 882" d="M5.5,18.5a4,4,0,1,1-4,4,4,4,0,0,1,4-4m0-1.5A5.5,5.5,0,1,0,11,22.5h0A5.5,5.5,0,0,0,5.5,17Z" fill="#383838"/>
      </g>
      <path id="Pfad_883" data-name="Pfad 883" d="M8,21.75H6.25V20.06a.75.75,0,0,0-1.5,0v1.69H3.06a.75.75,0,1,0,0,1.5H4.75v1.69a.75.75,0,0,0,1.5,0V23.25H8a.75.75,0,0,0,0-1.5Z" fill="#383838"/>
    </g>
    <g id="Gruppe_1308" data-name="Gruppe 1308">
      <path id="Pfad_886" data-name="Pfad 886" d="M24,8H21V6a2,2,0,0,0-2-2H13a2,2,0,0,0-2,2V8H8a2,2,0,0,0-2,2v6a6.44,6.44,0,0,1,1.5.3V10A.51.51,0,0,1,8,9.5H24a.51.51,0,0,1,.5.5V20a.51.51,0,0,1-.5.5H11.68A5.94,5.94,0,0,1,12,22H24a2,2,0,0,0,2-2V10A2,2,0,0,0,24,8ZM19.5,8h-7V6a.51.51,0,0,1,.5-.5h6a.51.51,0,0,1,.5.5Z" fill="#383838"/>
    </g>
  </g>
</svg>
