<svg id="Ebene_1" data-name="Ebene 1" xmlns="http://www.w3.org/2000/svg" viewBox="0 0 28 28"><defs><style>.cls-1{fill:#fff;}</style></defs><path class="cls-1" d="M26.73,15l-3.16-3.15a.75.75,0,0,0-1.06,0L19.35,15a.75.75,0,0,0,1.07,1.06l2-2A8.16,8.16,0,0,1,7.8,19l-1.15.95a9.65,9.65,0,0,0,17.26-5.58l1.76,1.75a.71.71,0,0,0,.53.22.74.74,0,0,0,.53-.22A.75.75,0,0,0,26.73,15Z"/><path class="cls-1" d="M9.17,11.89a.75.75,0,0,0-1.06,0l-2,2A8.15,8.15,0,0,1,20.54,8.79l1.16-1A9.66,9.66,0,0,0,4.61,13.64L2.86,11.89A.75.75,0,0,0,1.8,13L5,16.1a.71.71,0,0,0,.53.22A.74.74,0,0,0,6,16.1L9.17,13A.75.75,0,0,0,9.17,11.89Z"/></svg>