<?xml version="1.0" encoding="UTF-8"?><svg id="a" xmlns="http://www.w3.org/2000/svg" viewBox="0 0 28 28"><defs><style>.b{fill:#fff;}</style></defs><path class="b" d="M20,23H8c-.55,0-1-.45-1-1v-5c0-.55,.45-1,1-1s1,.45,1,1v4h10v-4c0-.55,.45-1,1-1s1,.45,1,1v5c0,.55-.45,1-1,1Z"/><path class="b" d="M20,8c-.55,0-1-.45-1-1v-2c0-.55,.45-1,1-1s1,.45,1,1v2c0,.55-.45,1-1,1Z"/><path class="b" d="M22.5,15c-.23,0-.46-.08-.65-.23l-7.85-6.51-7.85,6.51c-.42,.35-1.05,.3-1.41-.11-.36-.41-.31-1.03,.12-1.38L13.35,6.23c.37-.31,.92-.31,1.29,0l8.5,7.04c.42,.35,.47,.97,.12,1.38-.2,.23-.48,.35-.76,.35Z"/></svg>