<svg id="Ebene_1" data-name="Ebene 1" xmlns="http://www.w3.org/2000/svg" width="28" height="28" viewBox="0 0 28 28">
  <g id="icon_bell_white">
    <path id="Pfad_826" data-name="Pfad 826" d="M21.94,21.32l-1.46-2.59a8.07,8.07,0,0,1-1-4V12.51A6.3,6.3,0,0,0,15.2,6.45V4.82A1.75,1.75,0,0,0,13.54,3h0a1.73,1.73,0,0,0-1.7,1.74V6.45a6.28,6.28,0,0,0-4.25,6.06v2.27a8.17,8.17,0,0,1-1,4L5.06,21.31a.47.47,0,0,0,0,.46.41.41,0,0,0,.37.23H21.58a.43.43,0,0,0,.37-.23A.48.48,0,0,0,21.94,21.32ZM7.24,20.5l.58-1A9.37,9.37,0,0,0,9,14.78V12.5a4.77,4.77,0,0,1,3.22-4.63,6.28,6.28,0,0,1,1.29-.19,5.19,5.19,0,0,1,1.18.19A4.79,4.79,0,0,1,18,12.51v2.26a9.38,9.38,0,0,0,1.22,4.69l.58,1Z" fill="#fff"/>
    <path id="Pfad_827" data-name="Pfad 827" d="M13.5,25a2.7,2.7,0,0,0,1.27-.33A3.27,3.27,0,0,0,16.21,23H10.79A3,3,0,0,0,13.5,25Z" fill="#fff"/>
  </g>
</svg>
