<svg id="Ebene_1" data-name="Ebene 1" xmlns="http://www.w3.org/2000/svg" viewBox="0 0 28 28"><defs><style>.cls-1{fill:#fff;}</style></defs><path class="cls-1" d="M19.69,5H8.31A3.31,3.31,0,0,0,5,8.31V19.69A3.31,3.31,0,0,0,8.31,23H19.69A3.31,3.31,0,0,0,23,19.69V8.31A3.31,3.31,0,0,0,19.69,5ZM11,16.29H9.39a.25.25,0,0,1-.22-.11.27.27,0,0,1,0-.25l1.75-3.09h0L9.81,10.9a.25.25,0,0,1,0-.25.25.25,0,0,1,.23-.1h1.64a.5.5,0,0,1,.46.3l1.13,2C13.2,13,11.49,16,11.49,16A.51.51,0,0,1,11,16.29Zm7.78-7.64L15.18,15.1h0l2.32,4.24a.23.23,0,0,1,0,.25.24.24,0,0,1-.22.11H15.64a.52.52,0,0,1-.46-.31l-2.34-4.3c.12-.2,3.66-6.5,3.66-6.5a.5.5,0,0,1,.44-.31h1.67a.24.24,0,0,1,.22.11A.25.25,0,0,1,18.82,8.65Z"/></svg>