<svg id="Ebene_1" data-name="Ebene 1" xmlns="http://www.w3.org/2000/svg" viewBox="0 0 28 28"><defs><style>.cls-1{fill:#fff;}</style></defs><path class="cls-1" d="M5.71,11.35v-1l1.45-.17V4.37H5.7v-1l3.16-.57v7.33l1.44.17v1Z"/><path class="cls-1" d="M11.24,18V16.88l2.76-3a10.65,10.65,0,0,0,.67-.83,2.68,2.68,0,0,0,.34-.64,1.63,1.63,0,0,0,.1-.57,1.28,1.28,0,0,0-.28-.85,1,1,0,0,0-.84-.34,1.08,1.08,0,0,0-.9.38,1.69,1.69,0,0,0-.3,1.06H11.13l0,0a2.61,2.61,0,0,1,.34-1.39,2.48,2.48,0,0,1,1-1A3.21,3.21,0,0,1,14,9.35a3.36,3.36,0,0,1,1.51.31,2.3,2.3,0,0,1,1,.88,2.63,2.63,0,0,1,.16,2.25,4.68,4.68,0,0,1-.57,1c-.26.33-.59.71-1,1.14l-1.66,1.78v0h2.21l.09-.81h1.33V18Z"/><path class="cls-1" d="M20.92,24.78a3.72,3.72,0,0,1-1.48-.29,2.4,2.4,0,0,1-1.06-.84A2.06,2.06,0,0,1,18,22.33v0h1.66a1.16,1.16,0,0,0,.15.6,1,1,0,0,0,.43.42,1.34,1.34,0,0,0,.66.15,1.29,1.29,0,0,0,.93-.33,1.22,1.22,0,0,0,.35-.92,1.26,1.26,0,0,0-.34-.93,1.39,1.39,0,0,0-1-.34H19.9V19.66h1a1.48,1.48,0,0,0,.67-.14.91.91,0,0,0,.39-.41,1.35,1.35,0,0,0,.13-.62,1.22,1.22,0,0,0-.29-.86,1.11,1.11,0,0,0-.85-.31,1.25,1.25,0,0,0-.59.13,1,1,0,0,0-.41.37,1.13,1.13,0,0,0-.14.56H18.12v0a2,2,0,0,1,.34-1.21,2.33,2.33,0,0,1,1-.83,3.45,3.45,0,0,1,1.47-.3,3.24,3.24,0,0,1,2.08.63,2.15,2.15,0,0,1,.78,1.78,1.86,1.86,0,0,1-.33,1.08,2.43,2.43,0,0,1-1,.79,2,2,0,0,1,1.46,2,2.28,2.28,0,0,1-.39,1.34,2.46,2.46,0,0,1-1.06.87A3.81,3.81,0,0,1,20.92,24.78Z"/></svg>