<svg id="Ebene_1" data-name="Ebene 1" xmlns="http://www.w3.org/2000/svg" viewBox="0 0 28 28"><defs><style>.cls-1{fill:#383838;}</style></defs><path class="cls-1" d="M13.88,5.94,9.8,14.65l-2.39-4L6.07,12.92a6.87,6.87,0,0,0,.56,2l.78-1.3L10,17.83l4-8.6,3.27,5.85,2.34-5.37A7,7,0,0,0,18.73,8L17.1,11.71Z"/><path class="cls-1" d="M26.71,24.29l-6-6a10,10,0,0,0,.4-12.11,9.56,9.56,0,0,0-.91-1.09A10,10,0,1,0,13,22a9.94,9.94,0,0,0,6.32-2.26l6,6a1,1,0,0,0,1.42,0A1,1,0,0,0,26.71,24.29Zm-7.54-7.2A8,8,0,0,1,13.82,20,7.38,7.38,0,0,1,13,20a8,8,0,0,1-7-4.09,7.52,7.52,0,0,1-.72-1.73A7.81,7.81,0,0,1,5,12a8,8,0,0,1,8-8,7.38,7.38,0,0,1,.82,0,8,8,0,0,1,5.35,2.87v0A7.73,7.73,0,0,1,20,8.19a2.1,2.1,0,0,1,.13.26A7.95,7.95,0,0,1,20,15.81,7.75,7.75,0,0,1,19.17,17.09Z"/><path class="cls-1" d="M20,15.81a7.75,7.75,0,0,1-.86,1.28A7.75,7.75,0,0,0,20,15.81Z"/><path class="cls-1" d="M15.38,19.64a8.15,8.15,0,0,1-1.56.32A8.15,8.15,0,0,0,15.38,19.64Z"/><path class="cls-1" d="M19.18,6.93v0Z"/><path class="cls-1" d="M13.82,4a8.15,8.15,0,0,1,1.56.32A8.15,8.15,0,0,0,13.82,4Z"/><path class="cls-1" d="M20,8.19a7.73,7.73,0,0,0-.85-1.26h0A7.73,7.73,0,0,1,20,8.19Z"/></svg>