<svg id="Ebene_1" data-name="Ebene 1" xmlns="http://www.w3.org/2000/svg" viewBox="0 0 28 28"><defs><style>.cls-1{fill:#383838;}</style></defs><g id="Komponente_127_5" data-name="Komponente 127 5"><g id="Gruppe_2297" data-name="Gruppe 2297"><rect id="Rechteck_874" data-name="Rechteck 874" class="cls-1" x="14.65" y="10.4" width="12.21" height="3.29" rx="0.28" transform="translate(4.28 29.48) rotate(-76.76)"/><rect id="Rechteck_875" data-name="Rechteck 875" class="cls-1" x="21.46" y="2.74" width="2.18" height="3.29" rx="0.28" transform="translate(13.12 25.33) rotate(-76.76)"/><path id="Pfad_1045" data-name="Pfad 1045" class="cls-1" d="M18.57,21.29h0l-.85-2.61a.25.25,0,0,1,.16-.31.19.19,0,0,1,.13,0l2.36.55a.24.24,0,0,1,.12.41Z"/></g><path id="Pfad_1046" data-name="Pfad 1046" class="cls-1" d="M2,25.91a12.35,12.35,0,0,1,2.86-3.75,6.71,6.71,0,0,1,4.79-1.6,7.93,7.93,0,0,1,1.28.2c.41.11.8.25,1.2.39.67.29,1.35.54,2,.8a11.19,11.19,0,0,0,2,.55,2.67,2.67,0,0,0,2-.4,2.29,2.29,0,0,1-.8.92,3.39,3.39,0,0,1-1.19.46,7.46,7.46,0,0,1-2.45,0,14.17,14.17,0,0,1-2.32-.53,9.29,9.29,0,0,0-2-.37,6.62,6.62,0,0,0-3.77.88C4.51,24.08,3.37,25.11,2,25.91Z"/></g></svg>