<svg id="Ebene_1" data-name="Ebene 1" xmlns="http://www.w3.org/2000/svg" viewBox="0 0 28 28"><defs><style>.cls-1{fill:#fff;}</style></defs><path class="cls-1" d="M14,25.07a11.89,11.89,0,0,1-1.7-.14l-.56-.09L11.35,22a9,9,0,0,1-1.11-.46L7.93,23.26l-.45-.33a10.8,10.8,0,0,1-2.41-2.41l-.33-.45,1.75-2.31A9,9,0,0,1,6,16.65l-2.87-.39-.09-.55A11.91,11.91,0,0,1,2.93,14a12,12,0,0,1,.14-1.71l.09-.55L6,11.35a9,9,0,0,1,.46-1.11L4.74,7.93l.33-.45A10.8,10.8,0,0,1,7.48,5.07l.45-.33,2.31,1.75A8.35,8.35,0,0,1,11.35,6l.39-2.87.55-.09a10.33,10.33,0,0,1,3.42,0l.55.09L16.65,6a8.35,8.35,0,0,1,1.11.46l2.31-1.75.45.33a10.8,10.8,0,0,1,2.41,2.41l.33.45-1.75,2.31A9,9,0,0,1,22,11.35l2.87.39.09.55A12,12,0,0,1,25.07,14a11.91,11.91,0,0,1-.14,1.71l-.09.55L22,16.65a9,9,0,0,1-.46,1.11l1.75,2.31-.33.45a10.8,10.8,0,0,1-2.41,2.41l-.45.33-2.31-1.75a9,9,0,0,1-1.11.46l-.39,2.87-.56.09A11.89,11.89,0,0,1,14,25.07Zm-.92-1.55a8.09,8.09,0,0,0,1.84,0l.38-2.72.48-.13a6.64,6.64,0,0,0,1.67-.7l.44-.24,2.18,1.65a9,9,0,0,0,1.31-1.31l-1.65-2.18.24-.44a6.64,6.64,0,0,0,.7-1.67l.12-.48,2.73-.37c0-.33.05-.64.05-.93s0-.6-.05-.93l-2.73-.37-.12-.48a6.64,6.64,0,0,0-.7-1.67l-.24-.44,1.65-2.18a9,9,0,0,0-1.31-1.31L17.88,8.28,17.45,8a6.83,6.83,0,0,0-1.67-.69L15.3,7.2l-.38-2.72a8.09,8.09,0,0,0-1.84,0L12.7,7.2l-.48.13A6.83,6.83,0,0,0,10.55,8l-.43.26L7.93,6.62A9,9,0,0,0,6.62,7.93l1.65,2.18L8,10.55a6.64,6.64,0,0,0-.7,1.67l-.12.48-2.73.37c0,.33-.05.64-.05.93s0,.6.05.93l2.73.37.12.48A6.64,6.64,0,0,0,8,17.45l.24.44L6.62,20.07a9,9,0,0,0,1.31,1.31l2.18-1.65.44.24a6.64,6.64,0,0,0,1.67.7l.48.13Z"/><path class="cls-1" d="M14,18.89A4.89,4.89,0,1,1,18.89,14,4.9,4.9,0,0,1,14,18.89Zm0-8.28A3.39,3.39,0,1,0,17.39,14,3.39,3.39,0,0,0,14,10.61Z"/></svg>