<svg id="Ebene_1" data-name="Ebene 1" xmlns="http://www.w3.org/2000/svg" width="28" height="28" viewBox="0 0 28 28">
  <g id="Gruppe_1302" data-name="Gruppe 1302">
    <path id="Pfad_853" data-name="Pfad 853" d="M6.77,9.61H8.19a2.81,2.81,0,0,0,5.43,0h7.61a.77.77,0,0,0,0-1.54H13.62a2.81,2.81,0,0,0-5.43,0H6.77a.77.77,0,0,0,0,1.54Zm2.84-.77A1.35,1.35,0,1,1,11,10.13,1.32,1.32,0,0,1,9.9,9.61a1.26,1.26,0,0,1-.29-.77Z" fill="#383838"/>
    <path id="Pfad_854" data-name="Pfad 854" d="M21.23,13.23h-.38a2.82,2.82,0,0,0-5.44,0H6.77a.77.77,0,0,0,0,1.54h8.64a2.82,2.82,0,0,0,5.44,0h.38a.77.77,0,1,0,0-1.54ZM19.42,14A1.35,1.35,0,1,1,18,12.71a1.32,1.32,0,0,1,1.12.52,1.29,1.29,0,0,1,.29.77Z" fill="#383838"/>
    <path id="Pfad_855" data-name="Pfad 855" d="M21.23,18.39H15.69a2.82,2.82,0,0,0-5.44,0H6.77a.77.77,0,0,0,0,1.54h3.48a2.82,2.82,0,0,0,5.44,0h5.54a.77.77,0,0,0,0-1.54Zm-7,.77a1.35,1.35,0,1,1-1.41-1.29,1.32,1.32,0,0,1,1.12.52,1.22,1.22,0,0,1,.28.77Z" fill="#383838"/>
  </g>
</svg>
