<svg id="Ebene_1" data-name="Ebene 1" xmlns="http://www.w3.org/2000/svg" viewBox="0 0 28 28"><defs><style>.cls-1{fill:#fff;}</style></defs><path class="cls-1" d="M19.69,5H8.31A3.31,3.31,0,0,0,5,8.31V19.69A3.31,3.31,0,0,0,8.31,23H19.69A3.31,3.31,0,0,0,23,19.69V8.31A3.31,3.31,0,0,0,19.69,5Zm-1.27,6.82c0,.1,0,.2,0,.31a6.74,6.74,0,0,1-6.79,6.78h0A6.7,6.7,0,0,1,8,17.84a5.12,5.12,0,0,0,.56,0,4.81,4.81,0,0,0,3-1A2.39,2.39,0,0,1,9.29,15.2a3.14,3.14,0,0,0,.45,0,2.59,2.59,0,0,0,.63-.08,2.4,2.4,0,0,1-1.92-2.34v0a2.32,2.32,0,0,0,1.08.29,2.36,2.36,0,0,1-1.06-2,2.41,2.41,0,0,1,.32-1.2,6.8,6.8,0,0,0,4.92,2.49,2.35,2.35,0,0,1-.06-.54,2.38,2.38,0,0,1,4.13-1.63,4.93,4.93,0,0,0,1.51-.58A2.37,2.37,0,0,1,18.24,11a4.71,4.71,0,0,0,1.37-.38A4.68,4.68,0,0,1,18.42,11.82Z"/></svg>