<?xml version="1.0" encoding="UTF-8"?><svg id="a" xmlns="http://www.w3.org/2000/svg" viewBox="0 0 28 28"><defs><style>.b{fill:#326eac;}</style></defs><path class="b" d="M19,10h-3.87c-.08,0-.17,.03-.23,.09l-3.85,3.85s-.06,.09-.06,.14v5.92c0,.55,.45,1,1,1h7c.55,0,1-.45,1-1V11c0-.55-.45-1-1-1Zm-4,1.42v2.58h-2.58l2.58-2.58Zm4,8.58h-7v-5h3c.55,0,1-.45,1-1v-3h3v9Z"/><path class="b" d="M15,6h-3.87c-.08,0-.17,.03-.23,.09l-3.85,3.85s-.06,.09-.06,.14v5.92c0,.55,.45,1,1,1h2v-1h-2v-5h3c.55,0,1-.45,1-1v-3h3v2h1v-2c0-.55-.45-1-1-1Zm-4,4h-2.58l2.58-2.58v2.58Z"/></svg>