<svg id="Ebene_1" data-name="Ebene 1" xmlns="http://www.w3.org/2000/svg" viewBox="0 0 28 28"><defs><style>.cls-1{fill:#326eac;}</style></defs><path class="cls-1" d="M24.22,9.5H11.78a.75.75,0,1,1,0-1.5H24.22a.75.75,0,1,1,0,1.5Z"/><path class="cls-1" d="M24.22,14.5H11.78a.75.75,0,1,1,0-1.5H24.22a.75.75,0,1,1,0,1.5Z"/><path class="cls-1" d="M24.22,19.5H11.78a.75.75,0,1,1,0-1.5H24.22a.75.75,0,1,1,0,1.5Z"/><path class="cls-1" d="M8.17,9.5H4.83A.79.79,0,0,1,4,8.75.79.79,0,0,1,4.83,8H8.17A.79.79,0,0,1,9,8.75.79.79,0,0,1,8.17,9.5Z"/><path class="cls-1" d="M8.17,14.5H4.83a.75.75,0,1,1,0-1.5H8.17a.75.75,0,1,1,0,1.5Z"/><path class="cls-1" d="M8.17,19.5H4.83a.75.75,0,1,1,0-1.5H8.17a.75.75,0,1,1,0,1.5Z"/></svg>