<?xml version="1.0" encoding="UTF-8"?><svg id="a" xmlns="http://www.w3.org/2000/svg" viewBox="0 0 27.85 28"><defs><style>.b{fill:#fff;}</style></defs><path class="b" d="M15.26,16.5H.74c-.41,0-.74-.34-.74-.75s.33-.75,.74-.75H15.26c.41,0,.74,.34,.74,.75s-.33,.75-.74,.75Z"/><path class="b" d="M16.78,15.22s-.01,0-.02-.01l-3.49-3.49c-.29-.29-.77-.29-1.06,0s-.29,.77,0,1.06l2.97,2.97-2.97,2.97c-.29,.29-.29,.77,0,1.06,.15,.15,.34,.22,.53,.22s.38-.07,.53-.22l3.49-3.49s.01,0,.02-.01c.15-.15,.22-.34,.22-.53,0-.19-.07-.39-.22-.53Z"/><path class="b" d="M24.94,9h-2.94v-1.94c0-1.14-.92-2.06-2.06-2.06h-5.88c-1.14,0-2.06,.92-2.06,2.06v1.94h-2.94c-1.14,0-2.06,.92-2.06,2.06v1.77h1.5v-1.77c0-.31,.25-.56,.56-.56h15.88c.31,0,.56,.25,.56,.56v9.88c0,.31-.25,.56-.56,.56H9.06c-.31,0-.56-.25-.56-.56v-2.11h-1.5v2.11c0,1.14,.92,2.06,2.06,2.06h15.88c1.14,0,2.06-.92,2.06-2.06V11.06c0-1.14-.92-2.06-2.06-2.06Zm-4.44,0h-7v-1.94c0-.31,.25-.56,.56-.56h5.88c.31,0,.56,.25,.56,.56v1.94Z"/></svg>