<svg id="Ebene_1" data-name="Ebene 1" xmlns="http://www.w3.org/2000/svg" viewBox="0 0 28 28"><defs><style>.cls-1{fill:#1d1d1b;}</style></defs><path class="cls-1" d="M15.75,3.5h8a.75.75,0,0,0,0-1.5h-8a.75.75,0,0,0,0,1.5Z"/><path class="cls-1" d="M23.75,6h-8a.75.75,0,0,0,0,1.5h8a.75.75,0,0,0,0-1.5Z"/><path class="cls-1" d="M23.75,10h-8a.75.75,0,0,0,0,1.5h8a.75.75,0,0,0,0-1.5Z"/><path class="cls-1" d="M23.75,14h-19a.75.75,0,0,0,0,1.5h19a.75.75,0,0,0,0-1.5Z"/><path class="cls-1" d="M23.75,18h-19a.75.75,0,0,0,0,1.5h19a.75.75,0,0,0,0-1.5Z"/><path class="cls-1" d="M23.75,22h-19a.75.75,0,0,0,0,1.5h19a.75.75,0,0,0,0-1.5Z"/><rect class="cls-1" x="4" y="2" width="9.5" height="9.5" rx="0.75"/></svg>