<svg id="Ebene_1" data-name="Ebene 1" xmlns="http://www.w3.org/2000/svg" viewBox="0 0 33.69 28"><defs><style>.cls-1{fill:#fff;}</style></defs><path id="Pfad_1172" data-name="Pfad 1172" class="cls-1" d="M30.94,15.72a.63.63,0,0,0-.16-.24L25.21,9.82a.74.74,0,0,0-1.05,0,.76.76,0,0,0,0,1l4.32,4.38h-11a.75.75,0,0,0,0,1.5h11l-4.32,4.38a.76.76,0,0,0,0,1.06.74.74,0,0,0,1,0l5.57-5.66A.75.75,0,0,0,30.94,15.72Z"/><path class="cls-1" d="M19.23,21a.5.5,0,0,1-.49.5H3a.5.5,0,0,1-.49-.5V11A.5.5,0,0,1,3,10.5H18.74a.5.5,0,0,1,.49.5v1.46h1.48V11a2,2,0,0,0-2-2h-3V7a2,2,0,0,0-2-2H7.9a2,2,0,0,0-2,2V9H3a2,2,0,0,0-2,2V21a2,2,0,0,0,2,2H18.74a2,2,0,0,0,2-2V20H19.23ZM7.41,7a.5.5,0,0,1,.49-.5h5.91a.5.5,0,0,1,.49.5V9H7.41Z"/><polygon class="cls-1" points="25.16 9 25.16 9 25.16 9 25.16 9"/></svg>