<svg id="Ebene_1" data-name="Ebene 1" xmlns="http://www.w3.org/2000/svg" viewBox="0 0 28 28"><defs><style>.cls-1{fill:#fff;}</style></defs><path class="cls-1" d="M19.14,19.48a8.06,8.06,0,0,1-1-4v-1h-1.5v1a9.62,9.62,0,0,0,1.22,4.69l.59,1H5.9l.59-1a9.62,9.62,0,0,0,1.22-4.69V13.26a4.77,4.77,0,0,1,3.21-4.63,6.39,6.39,0,0,1,1.3-.2,4.86,4.86,0,0,1,1.18.2,4.71,4.71,0,0,1,1.92,1.25,2.48,2.48,0,0,1,1.34-.4h.26A6.23,6.23,0,0,0,13.86,7.2V5.58A1.76,1.76,0,0,0,12.2,3.75h0a1.75,1.75,0,0,0-1.7,1.74V7.2a6.29,6.29,0,0,0-4.25,6.06v2.27a8.06,8.06,0,0,1-1,4L3.72,22.07a.45.45,0,0,0,0,.45.41.41,0,0,0,.37.23H20.24a.42.42,0,0,0,.37-.22.5.5,0,0,0,0-.46Z"/><path class="cls-1" d="M12.16,25.75a2.56,2.56,0,0,0,1.27-.33,3.23,3.23,0,0,0,1.44-1.67H9.45A3,3,0,0,0,12.16,25.75Z"/><path class="cls-1" d="M24.66,11h-3V8a1,1,0,0,0-2,0v3h-3a1,1,0,0,0-.07,2h3.07v3a1,1,0,0,0,2,0V13h3a1,1,0,0,0,0-2Z"/></svg>