<?xml version="1.0" encoding="UTF-8" standalone="no"?>
<svg
   id="Ebene_1"
   data-name="Ebene 1"
   width="28"
   height="28"
   viewBox="0 0 28 28"
   version="1.1"
   sodipodi:docname="icon_portfolio_dark.svg"
   inkscape:export-filename="icon_portfolio_dark.svg"
   inkscape:export-xdpi="96"
   inkscape:export-ydpi="96"
   xmlns:inkscape="http://www.inkscape.org/namespaces/inkscape"
   xmlns:sodipodi="http://sodipodi.sourceforge.net/DTD/sodipodi-0.dtd"
   xmlns="http://www.w3.org/2000/svg"
   xmlns:svg="http://www.w3.org/2000/svg">
  <sodipodi:namedview
     id="namedview6"
     pagecolor="#ffffff"
     bordercolor="#000000"
     borderopacity="0.25"
     inkscape:showpageshadow="2"
     inkscape:pageopacity="0.0"
     inkscape:pagecheckerboard="0"
     inkscape:deskcolor="#d1d1d1"
     showgrid="false" />
  <defs
     id="defs8" />
  <g
     id="icon_portfolio_white"
     style="fill:#383838;fill-opacity:1"
     transform="matrix(1.1,0,0,1.1,-3.6,-0.3)"
     inkscape:export-filename="./icon_portfolio_dark.svg"
     inkscape:export-xdpi="105.6"
     inkscape:export-ydpi="105.6">
    <path
       id="Pfad_877"
       data-name="Pfad 877"
       d="M 24,8 H 21 V 6 A 2,2 0 0 0 19,4 H 13 A 2,2 0 0 0 11,6 V 8 H 8 a 2,2 0 0 0 -2,2 v 10 a 2,2 0 0 0 2,2 h 16 a 2,2 0 0 0 2,-2 V 10 A 2,2 0 0 0 24,8 Z M 12.5,6 A 0.51,0.51 0 0 1 13,5.5 h 6 A 0.51,0.51 0 0 1 19.5,6 v 2 h -7 z m 12,14 A 0.51,0.51 0 0 1 24,20.5 H 8 A 0.51,0.51 0 0 1 7.5,20 V 10 A 0.51,0.51 0 0 1 8,9.5 h 16 a 0.51,0.51 0 0 1 0.5,0.5 z"
       fill="#fff"
       style="fill:#383838;fill-opacity:1" />
  </g>
</svg>
