<svg id="Ebene_1" data-name="Ebene 1" xmlns="http://www.w3.org/2000/svg" viewBox="0 0 28 28"><defs><style>.cls-1{fill:#383838;}</style></defs><path class="cls-1" d="M20,20.26A.76.76,0,0,0,19,20.12a5.55,5.55,0,0,1-3.41,1.19c-2.8,0-5.18-2.18-6-5.17h6.18a.75.75,0,0,0,0-1.5H9.35c0-.21,0-.43,0-.64s0-.43,0-.64h6.43a.75.75,0,0,0,0-1.5H9.6c.78-3,3.16-5.17,6-5.17A5.6,5.6,0,0,1,19,7.87a.75.75,0,0,0,.91-1.19,7.11,7.11,0,0,0-4.32-1.49c-3.62,0-6.65,2.85-7.5,6.67H6.75a.75.75,0,0,0,0,1.5h1.1c0,.22,0,.43,0,.64s0,.43,0,.64H6.75a.75.75,0,0,0,0,1.5H8.06c.85,3.82,3.89,6.67,7.5,6.67a7.11,7.11,0,0,0,4.32-1.49A.76.76,0,0,0,20,20.26Z"/></svg>