<?xml version="1.0" encoding="utf-8"?>
<svg viewBox="0 0 28 28" xmlns="http://www.w3.org/2000/svg">
  <defs>
    <style>.cls-1{fill:#fff;}</style>
  </defs>
  <path class="cls-1" d="M20.47,21.36h0a3.7,3.7,0,0,1-.94-.16v3.73a.5.5,0,0,1-.5.5H3a.5.5,0,0,1-.5-.5v-10a.51.51,0,0,1,.5-.5h8.73L12.52,13l.05-.11H7.5v-2a.51.51,0,0,1,.5-.5h5a.53.53,0,0,1,.17,0V9l-.17,0H8a2,2,0,0,0-2,2v2H3a2,2,0,0,0-2,2v10a2,2,0,0,0,2,2H19a2,2,0,0,0,2-2v-3.6a4.07,4.07,0,0,1-.5,0Z" style="fill: rgb(56, 56, 56);"/>
  <path id="Pfad_827" data-name="Pfad 827" class="cls-1" d="M20.5,18.86a2.16,2.16,0,0,0,1-.26,2.73,2.73,0,0,0,1.17-1.36H18.3A2.41,2.41,0,0,0,20.5,18.86Z" style="fill: rgb(56, 56, 56);"/>
  <path class="cls-1" d="M27.35,15.87l-1.18-2.1a6.54,6.54,0,0,1-.84-3.21V8.72A5.12,5.12,0,0,0,21.88,3.8V2.48A1.42,1.42,0,0,0,20.53,1h0a1.41,1.41,0,0,0-1.38,1.41V3.8a5.1,5.1,0,0,0-3.45,4.92v1.84a6.54,6.54,0,0,1-.84,3.21l-1.18,2.1a.35.35,0,0,0,0,.37.33.33,0,0,0,.29.19H27.06a.35.35,0,0,0,.3-.19A.38.38,0,0,0,27.35,15.87Z" style="fill: rgb(56, 56, 56);"/>
</svg>