<svg id="Ebene_1" data-name="Ebene 1" xmlns="http://www.w3.org/2000/svg" width="28" height="28" viewBox="0 0 28 28">
  <g id="icon_portfolio_white">
    <path id="Pfad_876" data-name="Pfad 876" d="M19.5,6a.51.51,0,0,0-.5-.5H13a.51.51,0,0,0-.5.5V8h7Z" fill="#fff"/>
    <path id="Pfad_877" data-name="Pfad 877" d="M24,8H21V6a2,2,0,0,0-2-2H13a2,2,0,0,0-2,2V8H8a2,2,0,0,0-2,2V20a2,2,0,0,0,2,2H24a2,2,0,0,0,2-2V10A2,2,0,0,0,24,8ZM12.5,6a.51.51,0,0,1,.5-.5h6a.51.51,0,0,1,.5.5V8h-7Zm12,14a.51.51,0,0,1-.5.5H8a.51.51,0,0,1-.5-.5V10A.51.51,0,0,1,8,9.5H24a.51.51,0,0,1,.5.5Z" fill="#fff"/>
  </g>
</svg>
