<?xml version="1.0" encoding="utf-8"?>
<svg viewBox="3 7.16 24 14" width="24px" height="14px" xmlns="http://www.w3.org/2000/svg">
  <g id="icon_watchlist_plus_white">
    <path id="Pfad_874" data-name="Pfad 874" d="M15,10.5A3.5,3.5,0,1,1,11.5,14,3.5,3.5,0,0,1,15,10.5M15,9a5,5,0,1,0,5,5A5,5,0,0,0,15,9Z" style="fill: rgb(56, 56, 56);"/>
    <path id="Pfad_875" data-name="Pfad 875" d="M15,8.66c4,0,8.14,3.69,9.94,5.5-1.81,1.81-6,5.5-9.94,5.5S6.86,16,5.06,14.16c1.8-1.81,6-5.5,9.94-5.5m0-1.5c-6,0-12,7-12,7s6,7,12,7,12-7,12-7S21,7.16,15,7.16Z" style="fill: rgb(56, 56, 56);"/>
  </g>
</svg>