<?xml version="1.0" encoding="UTF-8"?><svg id="a" xmlns="http://www.w3.org/2000/svg" viewBox="0 0 28 28"><defs><style>.b{fill:#fff;}</style></defs><path class="b" d="M23.79,20.63l-4.22-7.42-4.22-7.42c-.6-1.05-2.09-1.05-2.69,0l-4.22,7.42-4.22,7.42c-.6,1.05,.15,2.37,1.35,2.37H22.44c1.2,0,1.94-1.31,1.35-2.37ZM15.35,10l-.33,7h-2.09l-.33-7h2.75Zm-.28,10.58c-.29,.28-.64,.42-1.07,.42s-.78-.14-1.07-.42c-.29-.28-.43-.64-.43-1.08s.14-.8,.43-1.08c.29-.28,.64-.42,1.07-.42s.78,.14,1.07,.42,.43,.64,.43,1.08-.14,.8-.43,1.08Z"/></svg>