<?xml version="1.0" encoding="UTF-8"?><svg id="Ebene_1" xmlns="http://www.w3.org/2000/svg" viewBox="0 0 28 28"><defs><style>.cls-1{fill:#fff;}</style></defs><path class="cls-1" d="M26,3V19H2V3H26m.04-2H1.96C.88,1,0,1.88,0,2.96V19.04C0,20.12,.88,21,1.96,21H26.04c1.08,0,1.96-.88,1.96-1.96V2.96c0-1.08-.88-1.96-1.96-1.96h0Z"/><rect class="cls-1" x="6" y="23" width="16" height="2" rx="1" ry="1"/><path class="cls-1" d="M21.77,10H9.41l2.74-2.74c.39-.39,.39-1.02,0-1.41s-1.02-.39-1.41,0l-4.44,4.44c-.09,.09-.17,.2-.22,.33-.1,.24-.1,.52,0,.76,.05,.12,.12,.23,.22,.33l4.44,4.44c.2,.2,.45,.29,.71,.29s.51-.1,.71-.29c.39-.39,.39-1.02,0-1.41l-2.74-2.74h12.35c.55,0,1-.45,1-1s-.45-1-1-1Z"/></svg>