<svg id="Ebene_1" data-name="Ebene 1" xmlns="http://www.w3.org/2000/svg" viewBox="0 0 28 28"><defs><style>.cls-1{fill:#383838;}</style></defs><g id="icon_bell_white"><path id="Pfad_826" data-name="Pfad 826" class="cls-1" d="M21.94,21.32l-1.46-2.59a8.07,8.07,0,0,1-1-4V12.51A6.3,6.3,0,0,0,15.2,6.45V4.82A1.75,1.75,0,0,0,13.54,3h0a1.73,1.73,0,0,0-1.7,1.74V6.45a6.28,6.28,0,0,0-4.25,6.06v2.27a8.17,8.17,0,0,1-1,4L5.06,21.31a.47.47,0,0,0,0,.46.41.41,0,0,0,.37.23H21.58a.43.43,0,0,0,.37-.23A.48.48,0,0,0,21.94,21.32Z"/><path id="Pfad_827" data-name="Pfad 827" class="cls-1" d="M13.5,25a2.7,2.7,0,0,0,1.27-.33A3.27,3.27,0,0,0,16.21,23H10.79A3,3,0,0,0,13.5,25Z"/></g></svg>