<svg id="Ebene_1" data-name="Ebene 1" xmlns="http://www.w3.org/2000/svg" viewBox="0 0 46.89 46.89"><defs><style>.cls-1{fill:#cecece;}.cls-2{fill:#5b9de1;}.cls-3{fill:none;}.cls-4{fill:#326eac;}</style></defs><path class="cls-1" d="M38.18,28.24l8.71-5-9.07-5.54a15.32,15.32,0,0,1,.36,10.57Z"/><path class="cls-1" d="M8.71,18.66,0,23.68l9.07,5.54a15.45,15.45,0,0,1-.36-10.56Z"/><path class="cls-2" d="M18.66,38.18l5,8.71,5.54-9.07a15.29,15.29,0,0,1-10.56.36Z"/><path class="cls-2" d="M28.24,8.71,23.21,0,17.68,9.07A15.33,15.33,0,0,1,23.45,8,15.5,15.5,0,0,1,28.24,8.71Z"/><g id="Ellipse_112" data-name="Ellipse 112"><circle class="cls-3" cx="23.45" cy="23.45" r="12.5"/><path class="cls-4" d="M23.45,36A12.5,12.5,0,1,1,36,23.45,12.51,12.51,0,0,1,23.45,36Zm0-20a7.5,7.5,0,1,0,7.5,7.5A7.5,7.5,0,0,0,23.45,16Z"/></g></svg>