<svg id="Ebene_1" data-name="Ebene 1" xmlns="http://www.w3.org/2000/svg" viewBox="0 0 28 28"><defs><style>.cls-1{fill:#326eac;}</style></defs><g id="Pfad_1176" data-name="Pfad 1176"><polygon class="cls-1" points="17.05 15.11 23 19.13 23 11.1 17.05 15.11"/></g><g id="Pfad_1177" data-name="Pfad 1177"><path class="cls-1" d="M12.39,14.22l1.34.9.32.21.32-.21,1.34-.91L23,9.29V9a1,1,0,0,0-1-1H6A1,1,0,0,0,5,9v.22Z"/></g><g id="Pfad_1178" data-name="Pfad 1178"><polygon class="cls-1" points="5 11.04 5 19.21 11.05 15.12 5 11.04"/></g><g id="Pfad_1179" data-name="Pfad 1179"><path class="cls-1" d="M15.71,16l-1.24.84a.76.76,0,0,1-.84,0L12.39,16l-7,4.73.13.09A1,1,0,0,0,6,21H22a.92.92,0,0,0,.48-.14l.2-.14Z"/></g></svg>