<svg id="Ebene_1" data-name="Ebene 1" xmlns="http://www.w3.org/2000/svg" width="28" height="28" viewBox="0 0 28 28">
  <g id="icon_watchlist_white">
    <path id="Pfad_887" data-name="Pfad 887" d="M15,10.5A3.5,3.5,0,1,1,11.5,14,3.5,3.5,0,0,1,15,10.5h0M15,9a5,5,0,1,0,5,5A5,5,0,0,0,15,9Z" fill="#fff"/>
    <g id="Gruppe_1310" data-name="Gruppe 1310">
      <path id="Pfad_888" data-name="Pfad 888" d="M5.5,18.5a4,4,0,1,1-4,4,4,4,0,0,1,4-4m0-1.5A5.5,5.5,0,1,0,11,22.5h0A5.5,5.5,0,0,0,5.5,17Z" fill="#fff"/>
      <path id="Pfad_889" data-name="Pfad 889" d="M8,21.75H6.25V20.06a.75.75,0,0,0-1.5,0v1.69H3.06a.75.75,0,1,0,0,1.5H4.75v1.69a.75.75,0,0,0,1.5,0V23.25H8a.75.75,0,0,0,0-1.5Z" fill="#fff"/>
    </g>
    <g id="Gruppe_1311" data-name="Gruppe 1311">
      <path id="Pfad_891" data-name="Pfad 891" d="M15,7.16c-6,0-12,7-12,7S3.7,15,4.84,16a6.43,6.43,0,0,1,2.58.26,31.71,31.71,0,0,1-2.36-2.13c1.8-1.81,6-5.5,9.94-5.5s8.14,3.69,9.94,5.5c-1.81,1.81-6,5.5-9.94,5.5a9.73,9.73,0,0,1-4.49-1.3,6.46,6.46,0,0,1,1.18,2.17,9.64,9.64,0,0,0,3.31.64c6,0,12-7,12-7S21,7.16,15,7.16Z" fill="#fff"/>
    </g>
  </g>
</svg>
