<svg id="Ebene_1" data-name="Ebene 1" xmlns="http://www.w3.org/2000/svg" viewBox="0 0 28 28"><defs><style>.cls-1{fill:#326fad;}</style></defs><path class="cls-1" d="M5.43,18.11v2H4V14.2H6.36a2.86,2.86,0,0,1,1.2.25,1.94,1.94,0,0,1,.81.71,2,2,0,0,1,.29,1.05A1.74,1.74,0,0,1,8,17.6a2.61,2.61,0,0,1-1.7.51Zm0-1.1h.93A.86.86,0,0,0,7,16.8a.73.73,0,0,0,.22-.58A.92.92,0,0,0,7,15.56a.8.8,0,0,0-.61-.26h-1Z"/><path class="cls-1" d="M9.42,20.12V14.2h1.91a2.79,2.79,0,0,1,1.41.36,2.52,2.52,0,0,1,1,1A3,3,0,0,1,14.07,17v.27a3.05,3.05,0,0,1-.34,1.46,2.52,2.52,0,0,1-1,1,2.65,2.65,0,0,1-1.39.37Zm1.43-4.82V19h.49a1.12,1.12,0,0,0,.95-.43,2.22,2.22,0,0,0,.32-1.3V17a2.19,2.19,0,0,0-.32-1.29,1.13,1.13,0,0,0-1-.44Z"/><path class="cls-1" d="M18.53,17.76h-2.3v2.36H14.8V14.2h4v1.1H16.23v1.37h2.3Z"/><path class="cls-1" d="M23.71,8.14,18.86,3.29a1,1,0,0,0-.7-.29H5A1,1,0,0,0,4,4v9H6V5H16.05v5.07a.74.74,0,0,0,.74.74H22V23H6V22H4v2a1,1,0,0,0,1,1H23a1,1,0,0,0,1-1V8.84A1,1,0,0,0,23.71,8.14Zm-5.65.67V5L22,8.81Z"/></svg>
