<svg id="Ebene_1" data-name="Ebene 1" xmlns="http://www.w3.org/2000/svg" width="28" height="28" viewBox="0 0 28 28">
  <g id="icon_add_24px" data-name="icon add 24px">
    <path id="Pfad_829" data-name="Pfad 829" d="M14,4A10,10,0,1,1,4,14,10,10,0,0,1,14,4m0-2A12,12,0,1,0,26,14h0A12,12,0,0,0,14,2Z" fill="#326fad"/>
    <path id="Pfad_830" data-name="Pfad 830" d="M18.53,12.78h-3.3V9.48a1.23,1.23,0,0,0-2.45,0v3.3H9.48a1.22,1.22,0,0,0,0,2.44h3.3v3.3a1.23,1.23,0,1,0,2.45.07V15.22h3.3a1.22,1.22,0,0,0,0-2.44Z" fill="#326fad"/>
  </g>
</svg>
