<?xml version="1.0" encoding="UTF-8"?><svg id="Ebene_1" xmlns="http://www.w3.org/2000/svg" viewBox="0 0 14 14"><defs><style>.cls-1{fill:#fff;}.cls-2{fill:#ff4d7d;}</style></defs><g id="rot"><circle id="Ellipse_140" class="cls-2" cx="7" cy="7" r="7"/><path class="cls-1" d="M8.04,7l2.74-2.74c.29-.29,.29-.76,0-1.04s-.76-.29-1.04,0l-2.74,2.74-2.74-2.74c-.29-.29-.76-.29-1.04,0s-.29,.76,0,1.04l2.74,2.74-2.74,2.74c-.29,.29-.29,.76,0,1.04,.14,.14,.33,.22,.52,.22s.38-.07,.52-.22l2.74-2.74,2.74,2.74c.14,.14,.33,.22,.52,.22s.38-.07,.52-.22c.29-.29,.29-.76,0-1.04l-2.74-2.74Z"/></g></svg>