<svg id="Ebene_1" data-name="Ebene 1" xmlns="http://www.w3.org/2000/svg" viewBox="0 0 28 28"><defs><style>.cls-1{fill:#326fad;}</style></defs><path class="cls-1" d="M14,7.52a2.95,2.95,0,1,1-2.95,3,2.95,2.95,0,0,1,2.95-3m0-2a4.95,4.95,0,1,0,4.95,5,4.95,4.95,0,0,0-4.95-5Z"/><path class="cls-1" d="M14,2A12,12,0,0,0,5.33,22.25,12.19,12.19,0,0,0,6.9,23.64a11.94,11.94,0,0,0,14.2,0,12.19,12.19,0,0,0,1.57-1.39A12,12,0,0,0,14,2Zm0,22a10,10,0,0,1-6.12-2.11A7.53,7.53,0,0,1,14,18.57a7.53,7.53,0,0,1,6.12,3.3A10,10,0,0,1,14,24Zm7.59-3.51A9.52,9.52,0,0,0,14,16.57a9.52,9.52,0,0,0-7.59,3.9,10,10,0,1,1,15.18,0Z"/></svg>