<svg id="Ebene_1" data-name="Ebene 1" xmlns="http://www.w3.org/2000/svg" viewBox="0 0 28 28"><defs><style>.cls-1{fill:#ff8d38;}.cls-2{fill:#fff;}</style></defs><g id="Gruppe_3058" data-name="Gruppe 3058"><path id="Pfad_1134" data-name="Pfad 1134" class="cls-1" d="M7.44,14.85l0,.07a8.85,8.85,0,0,0,.73.89,18.72,18.72,0,0,1,1.17,1.73h9.26A16.67,16.67,0,0,1,20,15.62c.14-.16.27-.32.4-.49s.14-.19.22-.28h0a8.29,8.29,0,0,0-2-11.38A7.89,7.89,0,0,0,7.43,5.51a8.33,8.33,0,0,0,0,9.34Z"/><g id="Gruppe_3056" data-name="Gruppe 3056"><path id="Pfad_1135" data-name="Pfad 1135" class="cls-2" d="M17.37,21l-6.62.77c0,.25,0,.52.05.79v.73l6.4-.74v0l0,0h0A11.45,11.45,0,0,1,17.37,21Z"/><path id="Pfad_1136" data-name="Pfad 1136" class="cls-2" d="M17.6,19.94a9.3,9.3,0,0,1,.3-.89H10.13a9.17,9.17,0,0,1,.49,1.7Z"/><path id="Pfad_1137" data-name="Pfad 1137" class="cls-2" d="M10.87,24.28a1.68,1.68,0,0,0,1.62,1.25h.08a1.44,1.44,0,1,0,2.87,0h.07a1.71,1.71,0,0,0,1.69-1.72v-.26Z"/></g></g></svg>