<svg id="Ebene_1" data-name="Ebene 1" xmlns="http://www.w3.org/2000/svg" viewBox="0 0 28 28"><defs><style>.cls-1{fill:#326eac;}</style></defs><path id="Pfad_842" data-name="Pfad 842" class="cls-1" d="M26.44,11.1a.78.78,0,0,0-.16-.24L20.62,5.2a.76.76,0,0,0-1.06,0,.74.74,0,0,0,0,1l4.38,4.38H12.75a.75.75,0,0,0,0,1.5H23.94l-4.38,4.38a.75.75,0,0,0,1.06,1.06l5.66-5.66A.76.76,0,0,0,26.44,11.1Z"/><path id="Pfad_1489" data-name="Pfad 1489" class="cls-1" d="M1.06,16.68a.63.63,0,0,0,.16.24l5.66,5.66a.76.76,0,0,0,1.06,0,.76.76,0,0,0,0-1L3.56,17.14H14.75a.75.75,0,0,0,0-1.5H3.56l4.38-4.38A.75.75,0,0,0,6.88,10.2L1.22,15.86A.75.75,0,0,0,1.06,16.68Z"/></svg>