<svg id="Ebene_1" data-name="Ebene 1" xmlns="http://www.w3.org/2000/svg" viewBox="0 0 28 28"><defs><style>.cls-1{fill:#383838;}</style></defs><path class="cls-1" d="M9.66,13.2a3.48,3.48,0,1,1,3.41-3.47A3.45,3.45,0,0,1,9.66,13.2Zm0-5.55A2,2,0,0,0,7.75,9.73,2,2,0,0,0,9.66,11.8a2,2,0,0,0,1.91-2.07A2,2,0,0,0,9.66,7.65Z"/><path class="cls-1" d="M18.34,20.75a3.48,3.48,0,1,1,3.41-3.48A3.45,3.45,0,0,1,18.34,20.75Zm0-5.55a2.08,2.08,0,1,0,1.91,2.07A2,2,0,0,0,18.34,15.2Z"/><path class="cls-1" d="M9.21,20.51a.8.8,0,0,1-.44-.13.68.68,0,0,1-.17-1L18.18,6.79a.79.79,0,0,1,1.05-.17.68.68,0,0,1,.17,1L9.82,20.21A.76.76,0,0,1,9.21,20.51Z"/></svg>