<?xml version="1.0" encoding="utf-8"?>
<!-- Generator: Adobe Illustrator 25.4.1, SVG Export Plug-In . SVG Version: 6.00 Build 0)  -->
<svg version="1.1" id="Ebene_1" xmlns="http://www.w3.org/2000/svg" xmlns:xlink="http://www.w3.org/1999/xlink" x="0px" y="0px"
	 viewBox="0 0 372.7 44.6" style="enable-background:new 0 0 372.7 44.6;" xml:space="preserve">
<style type="text/css">
	.st0{fill:#0D5994;}
	.st1{fill:#488ACC;}
</style>
<g>
	<path class="st0" d="M6.1,41.8h8.6V20.2h8.5v21.6h8.6V14.3h-1.7h-6.9h-8.5v-2.1c0-2.2,1.3-3.4,3.9-3.4c0.9,0,1.6,0.1,2.1,0.2V2.7
		c-1.5-0.4-2.8-0.5-4-0.5c-3.3,0-5.9,0.9-7.8,2.6C7,6.5,6.1,9,6.1,12.1v2.2h-4v6h4V41.8z"/>
	<path class="st0" d="M27.4,11.4c1.4,0,2.6-0.4,3.4-1.2c0.9-0.8,1.3-1.8,1.3-3s-0.4-2.2-1.3-3S28.8,3,27.4,3S24.9,3.4,24,4.2
		s-1.3,1.8-1.3,3s0.4,2.2,1.3,3C24.9,11,26,11.4,27.4,11.4z"/>
	<path class="st0" d="M52.6,13.8c-3.3,0-6,1.2-7.9,3.7l-0.3-3.2h-8v27.5H45V22.4c0.8-1.3,2.1-2,3.7-2c1.5,0,2.5,0.3,3.1,1
		s0.8,1.7,0.8,3.1v17.4h8.6V24.1c-0.1-3.4-0.8-6-2.2-7.7C57.6,14.7,55.5,13.8,52.6,13.8z"/>
	<path class="st0" d="M88.5,23.4c-0.1-3-1.1-5.3-3.1-7s-4.8-2.6-8.3-2.6s-6.4,0.8-8.7,2.5C66.1,18,65,20.1,65,22.8h8.6
		c0-2,1-3,3.1-3c2.2,0,3.3,1.3,3.3,3.8v1.5h-2.6c-4.2,0-7.4,0.8-9.6,2.3c-2.2,1.5-3.3,3.8-3.3,6.8c0,2.4,0.9,4.3,2.7,5.9
		c1.8,1.6,4,2.4,6.6,2.4c2.8,0,5-1,6.6-3c0.2,1.1,0.5,1.9,0.8,2.5h8.6v-0.4c-0.7-1.3-1.1-3.3-1.2-5.8V23.4H88.5z M79.9,34
		c-0.3,0.6-0.8,1.1-1.5,1.6s-1.6,0.7-2.7,0.7c-0.8,0-1.5-0.2-2-0.7s-0.8-1.1-0.8-1.9c0-2.7,1.5-4,4.5-4h2.5V34z"/>
	<path class="st0" d="M109,13.8c-3.3,0-6,1.2-7.9,3.7l-0.3-3.2h-8v27.5h8.6V22.4c0.8-1.3,2.1-2,3.7-2c1.5,0,2.5,0.3,3.1,1
		s0.8,1.7,0.8,3.1v17.4h8.6V24.1c-0.1-3.4-0.8-6-2.2-7.7C114,14.6,111.9,13.8,109,13.8z"/>
	<polygon class="st0" points="144,18.9 144,14.3 121.4,14.3 121.4,20.9 133.1,20.9 120.9,37 120.9,41.8 144.2,41.8 144.2,35.2 
		131.7,35.2 	"/>
	<path class="st0" d="M158.6,35c-0.4-0.4-0.6-1.1-0.6-2.2V20.2h4.5v-6H158V7.4h-8.6v6.8h-3.5v6h3.5v13.7c0,2.8,0.7,4.9,2.1,6.3
		c1.4,1.4,3.6,2.1,6.5,2.1c1.7,0,3.3-0.2,4.8-0.7v-6.1c-0.6,0.1-1.3,0.2-2.1,0.2C159.7,35.6,159,35.4,158.6,35z"/>
	<path class="st0" d="M174.2,17.8l-0.3-3.5h-8v27.5h8.6V24.4c0.8-1.7,2.5-2.5,5.2-2.5l2.8,0.2l0.2-8c-0.7-0.2-1.5-0.3-2.4-0.3
		C177.7,13.8,175.7,15.1,174.2,17.8z"/>
	<path class="st0" d="M197.3,13.8c-2.7,0-5.1,0.6-7.1,1.8c-2,1.2-3.5,2.8-4.6,5s-1.5,4.6-1.5,7.4v0.7c0,4,1.3,7.3,3.9,9.8
		s6,3.8,10.3,3.8c2.3,0,4.4-0.4,6.3-1.3c2-0.9,3.5-2,4.5-3.5l-3.9-4.6c-1.5,1.9-3.6,2.8-6.4,2.8c-1.6,0-3-0.4-4-1.3s-1.7-2.1-2-3.6
		h17v-3.3c0-4.3-1.1-7.6-3.4-10S201.2,13.8,197.3,13.8z M201.5,25.4h-8.7c0.5-3.3,2-5,4.5-5c1.4,0,2.4,0.4,3.1,1.1
		c0.7,0.8,1.1,1.8,1,3.2L201.5,25.4L201.5,25.4z"/>
	<path class="st0" d="M246.1,14.3h-5.4v-2.1c0-2.2,1.3-3.4,3.9-3.4c0.9,0,1.6,0.1,2.1,0.2V2.7c-1.5-0.4-2.8-0.5-4-0.5
		c-3.3,0-5.9,0.9-7.8,2.6c-1.9,1.7-2.8,4.2-2.8,7.3v2.2h-3.3h-0.7h-4.7v-2.1c0-2.2,1.3-3.4,3.9-3.4c0.9,0,1.6,0.1,2.1,0.2V2.7
		c-1.5-0.4-2.8-0.5-4-0.5c-3.3,0-5.9,0.9-7.8,2.6c-1.8,1.7-2.8,4.2-2.8,7.3v2.2h-4v6h4v21.6h8.6V20.2h4.7h0.7h3.3v21.6h8.6V20.2h5.4
		V14.3z"/>
	<path class="st1" d="M248.9,36.1c-0.9,0-1.7,0.3-2.3,0.8s-0.9,1.3-0.9,2.1s0.3,1.6,0.9,2.1s1.4,0.8,2.3,0.8c0.9,0,1.7-0.3,2.3-0.8
		s0.9-1.3,0.9-2.1s-0.3-1.6-0.9-2.1S249.9,36.1,248.9,36.1z"/>
	<path class="st0" d="M266.4,24.1c-1.2-1.4-2.6-2-4.4-2c-2.4,0-4.2,0.9-5.6,2.7c-1.3,1.8-2,4.2-2,7.3c0,3.3,0.7,5.8,2,7.5
		c1.3,1.7,3.2,2.7,5.5,2.7c1.9,0,3.5-0.8,4.7-2.4l0.3,2.1h5.4V14.3h-6.1v9.8C266.2,24.1,266.4,24.1,266.4,24.1z M266.4,35.8
		c-0.6,1.1-1.5,1.7-2.9,1.7c-2,0-3-1.7-3-5.2v-1.1c0.2-3,1.2-4.5,3-4.5c1.3,0,2.3,0.6,2.8,1.7v7.4C266.3,35.8,266.4,35.8,266.4,35.8
		z"/>
	<path class="st0" d="M293.1,31.7c0-3-0.8-5.4-2.4-7.1c-1.6-1.7-3.7-2.5-6.4-2.5c-1.9,0-3.6,0.4-5,1.2s-2.5,2-3.2,3.5
		c-0.7,1.5-1.1,3.3-1.1,5.2v0.5c0,2.8,0.9,5.1,2.8,6.9s4.2,2.7,7.2,2.7c1.6,0,3.1-0.3,4.5-0.9c1.4-0.6,2.4-1.4,3.2-2.5l-2.8-3.3
		c-1.1,1.3-2.6,2-4.5,2c-1.2,0-2.1-0.3-2.8-0.9c-0.7-0.6-1.2-1.5-1.4-2.6h12v-2.2C293.2,31.7,293.1,31.7,293.1,31.7z M287.2,30.2
		h-6.1c0.3-2.3,1.4-3.5,3.2-3.5c1,0,1.7,0.3,2.2,0.8s0.8,1.3,0.7,2.2L287.2,30.2L287.2,30.2z"/>
</g>
<g>
	<path class="st0" d="M306.7,21.8V2.2h6.4c2.1,0,3.7,0.4,4.8,1.2c1.1,0.9,1.6,2.1,1.6,3.9c0,0.9-0.2,1.8-0.7,2.5
		c-0.5,0.7-1.2,1.2-2.1,1.6c1.1,0.4,1.9,0.9,2.5,1.8s0.9,1.8,0.9,3c0,1.8-0.5,3.2-1.8,4.1c-1.1,1.1-2.8,1.6-4.8,1.6
		C313.5,21.8,306.7,21.8,306.7,21.8z M309.4,10.5h3.9c1.1,0,2.1-0.4,2.7-0.9c0.7-0.5,1.1-1.4,1.1-2.3c0-1.1-0.4-1.9-0.9-2.3
		c-0.7-0.5-1.6-0.7-2.8-0.7h-3.9V10.5z M309.4,12.6v7.1h4.2c1.2,0,2.1-0.4,2.8-0.9c0.7-0.7,1.1-1.4,1.1-2.7c0-2.3-1.2-3.5-3.9-3.5
		H309.4z"/>
	<path class="st0" d="M335,12.8h-8.5v6.9h9.9v2.1h-12.6V2.2h12.4v2.1h-9.7v6.4h8.5V12.8z"/>
	<path class="st0" d="M353.4,4.3h-6.2v17.5h-2.7V4.3h-6.4V2.2h15.2V4.3z"/>
	<path class="st0" d="M366.2,16.7h-8.3l-1.8,5.1h-2.7l7.4-19.6h2.3l7.4,19.6h-2.7L366.2,16.7z M358.7,14.5h6.7l-3.4-9.2L358.7,14.5z
		"/>
</g>
</svg>
