<svg xmlns="http://www.w3.org/2000/svg" width="51.358" height="19.748" viewBox="0 0 51.358 19.748"><defs><style>.a{fill:#fff;}</style></defs><g transform="translate(-127.511 -471.436)"><g transform="translate(127.511 471.436)"><path class="a" d="M376.389,476.223a7.578,7.578,0,0,1-2.264-.528c-.149-.063-.255-.631-.33-.66l-.155-.762c-.02-.679-.046-1.428-.057-1.666l-.02-.432h.553l.07.532c.263,1.986,1.312,2.985,3.132,2.985a2.215,2.215,0,0,0,2.336-1.414,2.706,2.706,0,0,0,.138-1.18c0-.826,0-.84-.192-1.234-.338-.692-.68-.921-2.383-1.6-.505-.2-1.105-.46-1.333-.575a3.545,3.545,0,0,1,.5-6.738,7.22,7.22,0,0,1,2.7.033,6.124,6.124,0,0,1,1.449.574,6.276,6.276,0,0,1,.094,1.172c.017.6.042,1.237.054,1.409l.022.313h-.561l-.123-.628c-.287-1.461-.959-2.232-2.118-2.425a2.844,2.844,0,0,0-2.522.8,2.179,2.179,0,0,0-.443,1.534,1.6,1.6,0,0,0,.176.975,2.146,2.146,0,0,0,1.068.976,15.833,15.833,0,0,0,1.822.731,11.333,11.333,0,0,1,1.6.8,3.839,3.839,0,0,1,1.526,3.6,3.583,3.583,0,0,1-1.14,2.424A4.34,4.34,0,0,1,376.389,476.223Zm-21.028-.081a3.377,3.377,0,0,1-3.027-3.369c-.038-.311-.062-2.182-.062-4.872v-4.367H350.85V463h4.681v.533l-.756.017-.755.017L354,467.438c-.023,5.041.034,5.853.473,6.75a2.527,2.527,0,0,0,2.518,1.326,2.413,2.413,0,0,0,2.628-1.763c.272-.789.293-1.207.293-5.851v-4.366h-1.422V463h3.437v.536h-1.3l-.019,4.753c-.018,4.7-.02,4.758-.15,5.23a3.253,3.253,0,0,1-2.473,2.533A8,8,0,0,1,355.361,476.143Zm7.352-.343.018-.256.711-.009.711-.009.015-5.994.015-5.994-.726-.017-.726-.017-.018-.253-.018-.253h2.91c1.841,0,3.067.024,3.337.066a2.628,2.628,0,0,1,2.11,1.364,3.487,3.487,0,0,1,.274,2.212,2.441,2.441,0,0,1-1.174,1.745,3.531,3.531,0,0,1-1.317.544,3.033,3.033,0,0,0-.523.15c-.027.023.133.06.355.083,2.289.233,3.292,1.241,3.292,3.311a3.219,3.219,0,0,1-.936,2.534,3.483,3.483,0,0,1-1.6.877c-.447.126-.583.132-3.594.151l-3.129.02Zm5.4-.375a2.529,2.529,0,0,0,1.913-1.982,5.369,5.369,0,0,0-.1-2.31,2.628,2.628,0,0,0-1.085-1.366,3.249,3.249,0,0,0-1.917-.332H365.9v6.079h.936A5.81,5.81,0,0,0,368.112,475.425Zm0-6.668a2.512,2.512,0,0,0,1.541-2.639,2.344,2.344,0,0,0-1.8-2.567,9.785,9.785,0,0,0-1.131-.028l-.815.018v2.639c0,1.452.02,2.66.044,2.685A9.237,9.237,0,0,0,368.108,468.757Z" transform="translate(-329.814 -460.069)"/><path class="a" d="M140.221,453.62c-.187-.054-.193-.066-.193-.377s0-.322-.193-.359a3.714,3.714,0,0,1-1.243-.571,2.862,2.862,0,0,1-.932-3.352,3.062,3.062,0,0,1,2.028-1.734c.434-.112.413-.237-.045-.275l-.355-.03v-.6l.37-.018.37-.018v-1.517c0-.834-.012-1.517-.028-1.517s-.462.355-.993.79-1.039.847-1.128.918-.162.151-.162.179a1.2,1.2,0,0,0,.2.289c.195.231.2.243.106.4a.573.573,0,0,1-.258.219c-.15.052-.183.034-.4-.222-.17-.2-.254-.261-.3-.215s-.013.176.124.472a2.08,2.08,0,0,1,.217,1.018,2.5,2.5,0,0,1-.1,1.018A2.752,2.752,0,0,1,135.445,450a2.317,2.317,0,0,1-.978.094,2.639,2.639,0,0,1-1.563-.527,2.131,2.131,0,0,0-.385-.231,1.043,1.043,0,0,0-.247.176c-.191.164-.211.169-.369.086a.765.765,0,0,1-.348-.514.673.673,0,0,1,.219-.262l.219-.185-.158-.366a2.9,2.9,0,0,1,1.591-3.956,2.275,2.275,0,0,1,.973-.124,2.593,2.593,0,0,1,1.7.533c.484.326.6.272.279-.127-.22-.27-.223-.281-.131-.436a.588.588,0,0,1,.255-.218c.146-.054.181-.035.4.223l.245.282,1.274-1.039a15.5,15.5,0,0,0,1.274-1.1,14.7,14.7,0,0,0-1.244-1.072l-1.244-1.01-.163.156c-.209.2-.206.318.015.482s.218.19.021.426l-.156.187-.187-.182c-.224-.218-.248-.221-.4-.048-.24.282-.242.32-.022.47.113.077.206.171.206.207a.815.815,0,0,1-.285.38,11.462,11.462,0,0,1-1.183-.951,2.682,2.682,0,0,1,.607-.392,3.593,3.593,0,0,0,.625-.39c0-.025-.077-.1-.171-.169l-.171-.123-.578.329a3.929,3.929,0,0,1-.6.307,4.5,4.5,0,0,1,.179-.658l.2-.637L135,439.5a.371.371,0,0,0-.208-.1,2.951,2.951,0,0,0-.259.669c-.111.358-.213.661-.226.674a12.091,12.091,0,0,1-1.217-.982,1.109,1.109,0,0,1,.311-.377.954.954,0,0,1,.26.16l.208.16.173-.186a.894.894,0,0,0,.173-.228.969.969,0,0,0-.219-.232l-.219-.191.145-.185c.178-.226.2-.229.423-.042a.786.786,0,0,0,.221.149,1.147,1.147,0,0,0,.358-.4,3.533,3.533,0,0,0-.5-.433c-.555-.431-.6-.533-.353-.827.308-.368.015-.559,3.523,2.3,1.9,1.547,2.363,1.921,2.395,1.921s.035-.684.035-1.52v-1.52h-.593v.6H138.9v-.6h-.593v.6h-.533V437.3l.281.112c.155.061.453.182.662.267a3.377,3.377,0,0,0,.43.156c.027,0,.049-.1.049-.223v-.224l-.66-.262-.66-.262.66-.266.66-.266V436.1a.5.5,0,0,0-.028-.232c-.016,0-.3.11-.637.245l-.683.275c-.057.023-.074-.157-.074-.781v-.811h.533v.6h.593v-.6h.533v.6h.593v-1.366l.228-.062a.652.652,0,0,1,.415,0l.186.065V437.7c0,3.1.013,3.661.082,3.634s1.691-1.334,4.482-3.616c.506-.414.953-.773.993-.8.113-.07.294.012.418.189.246.352.234.384-.314.823a3.262,3.262,0,0,0-.506.455.94.94,0,0,0,.311.4.966.966,0,0,0,.262-.161l.21-.161.168.206.168.206-.233.209-.233.209.185.2c.127.139.208.186.258.149.4-.3.382-.294.534-.138a.777.777,0,0,1,.159.212,5.769,5.769,0,0,1-1.2,1,4.685,4.685,0,0,1-.236-.683,2.134,2.134,0,0,0-.262-.656.521.521,0,0,0-.2.117l-.137.115.2.658a4.181,4.181,0,0,1,.176.658c-.016,0-.295-.15-.62-.334l-.592-.334-.172.166-.172.166.37.206.657.368.287.162-.618.508-.619.508-.166-.209-.166-.209.226-.191.226-.191-.166-.218a1.052,1.052,0,0,0-.195-.218,1.535,1.535,0,0,0-.253.178l-.224.178-.161-.212-.161-.212.224-.195.224-.195-.172-.217c-.147-.186-.187-.207-.274-.144-.251.179-2.472,1.983-2.475,2.011a2.1,2.1,0,0,0,.337.3c.187.147.775.623,1.306,1.057s.976.79.989.79a1.652,1.652,0,0,0,.215-.268c.226-.317.351-.336.6-.088l.179.181-.156.192c-.2.249-.3.45-.249.5.023.023.076.017.118-.015a4.35,4.35,0,0,1,1.123-.645,2.787,2.787,0,0,1,3.432,1.439l.252.511v.75a2.63,2.63,0,0,1-.36,1.586c-.015.034.08.141.211.239.2.146.233.2.2.325a.925.925,0,0,1-.4.485c-.082.045-.158.012-.346-.15l-.241-.207-.27.208a2.82,2.82,0,0,1-1.82.616,2.534,2.534,0,0,1-1.958-.8,2.69,2.69,0,0,1-.768-1.349,2.874,2.874,0,0,1,.19-1.92c.112-.256.134-.363.085-.413s-.1-.03-.18.077c-.363.462-.323.437-.529.33a.69.69,0,0,1-.252-.22c-.068-.128-.053-.161.237-.539l.12-.157L142.1,444.2c-.618-.5-1.152-.925-1.186-.936a6.472,6.472,0,0,0-.046,1.49l.016,1.51.354.018c.383.02.444.066.444.339s-.061.32-.444.339c-.505.026-.469.147.094.31a2.874,2.874,0,0,1,1.7,1.255,2.929,2.929,0,0,1,.138,2.789,3.184,3.184,0,0,1-1.715,1.451c-.619.18-.6.167-.6.494,0,.276-.011.3-.187.359C140.461,453.695,140.48,453.695,140.221,453.62Zm-.181-1.719c.017-.243.035-.271.211-.322a.74.74,0,0,1,.385,0c.178.051.195.078.222.351s.041.295.178.281a2.516,2.516,0,0,0,1.151-.671,1.972,1.972,0,0,0,.593-1.518,3.167,3.167,0,0,0-.076-.761,1.009,1.009,0,0,0-1.77-.407.9.9,0,0,0,.293,1.235,1.249,1.249,0,0,0,.832,0c.092-.041.1-.009.1.282,0,.315-.008.331-.187.394a1.363,1.363,0,0,1-1.32-.3.879.879,0,0,0-.17-.174,1.51,1.51,0,0,0-.233.2,1.315,1.315,0,0,1-1.3.271l-.229-.069v-.325c0-.289.012-.319.1-.274a1.66,1.66,0,0,0,.47.051c.326,0,.387-.019.549-.176a.9.9,0,0,0,0-1.287c-.549-.516-1.449-.089-1.658.785a2.3,2.3,0,0,0,.872,2.384c.295.2.856.424.919.361A.853.853,0,0,0,140.04,451.9Zm-4.718-2.561a2.15,2.15,0,0,0,1.332-1.268,1,1,0,0,0-.268-1.043c-.226-.227-.283-.255-.531-.255a.868.868,0,0,0-.9.741.9.9,0,0,0,.454.854l.23.114-.244.188a1,1,0,0,1-.323.188,1.074,1.074,0,0,1-.342-.243,1.19,1.19,0,0,1-.426-1.033l.036-.263-.293-.041a1.428,1.428,0,0,1-1.066-.894c-.057-.149-.042-.182.161-.363a1.473,1.473,0,0,1,.259-.2c.019,0,.066.1.1.228a.9.9,0,0,0,.809.574.875.875,0,0,0,.86-.87.94.94,0,0,0-1.045-.888,2.165,2.165,0,0,0-1.853,2.507c.067.416.2.77.283.77a.723.723,0,0,0,.237-.152c.173-.146.186-.148.362-.057a.77.77,0,0,1,.283.307l.1.212-.221.2a1.657,1.657,0,0,0-.221.227,2.856,2.856,0,0,0,.882.489A2.5,2.5,0,0,0,135.322,449.339Zm11.918-.089a1.925,1.925,0,0,0,.474-.285c.1-.116.1-.123-.086-.281-.223-.187-.242-.342-.069-.563.228-.291.335-.309.6-.1l.233.188.132-.287a1.794,1.794,0,0,0,.132-.883,1.618,1.618,0,0,0-.167-.939,2.308,2.308,0,0,0-1.082-1.114,1.147,1.147,0,0,0-1.557.43.7.7,0,0,0,.165.933.8.8,0,0,0,1.246-.031.716.716,0,0,0,.181-.354c0-.19.045-.185.312.036s.264.273.108.579a1.261,1.261,0,0,1-1.021.684l-.238.01.038.253a1.179,1.179,0,0,1-.394,1.048,1.092,1.092,0,0,1-.375.283.886.886,0,0,1-.33-.19l-.235-.19.164-.071a.87.87,0,0,0,.066-1.522.809.809,0,0,0-1.151.336,1.469,1.469,0,0,0,.786,1.914,2.368,2.368,0,0,0,2.075.114Z" transform="translate(-131.555 -433.928)"/></g></g></svg>