<svg xmlns="http://www.w3.org/2000/svg" width="69.395" height="26.683" viewBox="0 0 69.395 26.683"><defs><style>.a{fill:#fc0101;}.b{fill:#010101;}</style></defs><path class="a" d="M385.358,480.923a10.239,10.239,0,0,1-3.059-.713c-.2-.084-.345-.853-.446-.892l-.209-1.029c-.027-.917-.062-1.93-.077-2.251l-.027-.584h.748l.1.718c.355,2.683,1.772,4.033,4.233,4.033a2.993,2.993,0,0,0,3.157-1.91,3.657,3.657,0,0,0,.187-1.594c0-1.116,0-1.134-.259-1.667-.457-.935-.919-1.245-3.22-2.161-.683-.272-1.493-.621-1.8-.777-2.01-1.013-3.005-2.45-3-4.331a4.681,4.681,0,0,1,3.682-4.773,9.758,9.758,0,0,1,3.643.044,8.278,8.278,0,0,1,1.958.776,8.486,8.486,0,0,1,.127,1.583c.024.815.056,1.672.072,1.9l.029.423h-.757l-.166-.848c-.387-1.975-1.3-3.016-2.862-3.276A3.843,3.843,0,0,0,384,464.683a2.944,2.944,0,0,0-.6,2.073,2.156,2.156,0,0,0,.238,1.317,2.9,2.9,0,0,0,1.444,1.319,21.394,21.394,0,0,0,2.463.988,15.306,15.306,0,0,1,2.162,1.078,5.188,5.188,0,0,1,2.062,4.868,4.842,4.842,0,0,1-1.541,3.275C389.046,480.7,387.612,481.089,385.358,480.923Zm-28.413-.109c-2.549-.488-3.754-1.83-4.089-4.552-.052-.42-.084-2.948-.084-6.584v-5.9H350.85v-.725h6.325v.72l-1.021.023-1.021.023-.023,5.235c-.031,6.811.046,7.908.64,9.121a3.414,3.414,0,0,0,3.4,1.792,3.26,3.26,0,0,0,3.552-2.382c.368-1.067.4-1.63.4-7.906v-5.9h-1.922v-.725h4.644v.725h-1.755l-.025,6.423c-.025,6.355-.027,6.429-.2,7.067a4.4,4.4,0,0,1-3.341,3.422A10.808,10.808,0,0,1,356.945,480.814Zm9.933-.463L366.9,480l.961-.013.961-.013.02-8.1.02-8.1-.981-.023-.981-.023-.024-.342-.025-.342h3.932c2.487,0,4.144.033,4.508.09a3.551,3.551,0,0,1,2.851,1.843,4.712,4.712,0,0,1,.37,2.99,3.3,3.3,0,0,1-1.586,2.358,4.769,4.769,0,0,1-1.78.735,4.092,4.092,0,0,0-.707.2c-.036.031.18.081.48.112,3.093.314,4.448,1.677,4.448,4.474a4.35,4.35,0,0,1-1.265,3.425,4.706,4.706,0,0,1-2.168,1.185c-.6.17-.788.178-4.856.2l-4.228.027Zm7.3-.507a3.418,3.418,0,0,0,2.585-2.678,7.254,7.254,0,0,0-.129-3.121,3.551,3.551,0,0,0-1.466-1.846,4.391,4.391,0,0,0-2.59-.449h-1.387v8.215h1.264A7.857,7.857,0,0,0,374.174,479.844Zm0-9.01c1.324-.43,2.1-1.752,2.083-3.566-.014-1.892-.97-3.254-2.436-3.468a13.227,13.227,0,0,0-1.528-.038l-1.1.025v3.566c0,1.961.027,3.594.06,3.629A12.485,12.485,0,0,0,374.169,470.834Z" transform="translate(-322.426 -459.095)"/><path class="b" d="M143.265,460.535c-.252-.073-.26-.089-.26-.51s-.005-.435-.26-.485a5.02,5.02,0,0,1-1.68-.772,3.867,3.867,0,0,1-1.26-4.529,4.137,4.137,0,0,1,2.74-2.344c.586-.151.558-.32-.061-.371l-.48-.04v-.805l.5-.024.5-.024v-2.05c0-1.127-.017-2.05-.037-2.05s-.624.48-1.342,1.067-1.4,1.145-1.524,1.24-.219.2-.218.242a1.624,1.624,0,0,0,.273.391c.263.313.268.329.143.541a.774.774,0,0,1-.349.3c-.2.071-.247.046-.539-.3-.229-.272-.343-.353-.406-.29s-.018.238.168.637a2.81,2.81,0,0,1,.293,1.375,3.383,3.383,0,0,1-.131,1.376,3.719,3.719,0,0,1-2.524,2.538,3.13,3.13,0,0,1-1.321.128,3.566,3.566,0,0,1-2.113-.712,2.884,2.884,0,0,0-.52-.312,1.41,1.41,0,0,0-.333.237c-.258.221-.285.228-.5.116a1.033,1.033,0,0,1-.47-.7.91.91,0,0,1,.3-.354l.3-.25-.213-.495a3.921,3.921,0,0,1,2.15-5.346,3.074,3.074,0,0,1,1.315-.168,3.5,3.5,0,0,1,2.3.72c.654.441.815.367.377-.171-.3-.365-.3-.38-.177-.59a.794.794,0,0,1,.344-.294c.2-.073.244-.047.547.3l.331.381,1.722-1.4a20.937,20.937,0,0,0,1.721-1.488,19.875,19.875,0,0,0-1.681-1.448l-1.681-1.365-.22.211c-.283.271-.278.43.02.651s.3.257.029.575l-.211.253-.253-.247c-.3-.295-.335-.3-.534-.065-.324.381-.327.432-.03.635.153.1.278.231.278.28a1.1,1.1,0,0,1-.386.514,15.5,15.5,0,0,1-1.6-1.286,3.625,3.625,0,0,1,.821-.53,4.857,4.857,0,0,0,.844-.527c0-.034-.1-.137-.231-.228l-.231-.166-.78.444a5.31,5.31,0,0,1-.81.415,6.075,6.075,0,0,1,.242-.89l.271-.86-.2-.162a.5.5,0,0,0-.281-.136,3.987,3.987,0,0,0-.35.9c-.15.483-.288.893-.305.911a16.337,16.337,0,0,1-1.644-1.327,1.5,1.5,0,0,1,.421-.509,1.29,1.29,0,0,1,.352.216l.281.216.234-.252a1.207,1.207,0,0,0,.234-.308,1.31,1.31,0,0,0-.3-.314l-.3-.258.2-.25c.241-.306.273-.309.571-.057a1.063,1.063,0,0,0,.3.2,1.55,1.55,0,0,0,.484-.543,4.772,4.772,0,0,0-.677-.585c-.749-.583-.808-.721-.477-1.117.416-.5.021-.756,4.76,3.111,2.562,2.09,3.192,2.6,3.236,2.6.026,0,.047-.924.047-2.054v-2.054h-.8v.805h-.721v-.805h-.8v.805h-.721V438.48l.38.151c.209.083.612.246.894.361a4.559,4.559,0,0,0,.581.21c.036,0,.066-.136.066-.3v-.3l-.891-.354-.891-.354.892-.359.892-.359v-.314a.678.678,0,0,0-.038-.314c-.021,0-.409.149-.861.331l-.922.371c-.077.031-.1-.212-.1-1.056v-1.1h.721v.805h.8V435.1h.721v.805h.8v-1.846l.309-.084a.882.882,0,0,1,.56,0l.252.088v4.954c0,4.189.017,4.947.111,4.911s2.285-1.8,6.056-4.886c.684-.559,1.287-1.044,1.342-1.078.152-.095.4.016.565.256.333.476.316.519-.425,1.112a4.409,4.409,0,0,0-.684.614,1.271,1.271,0,0,0,.421.544,1.3,1.3,0,0,0,.354-.218l.284-.218.227.278.227.278-.315.282-.315.282.25.275c.171.188.281.252.349.2.542-.4.516-.4.722-.187a1.051,1.051,0,0,1,.215.287,7.8,7.8,0,0,1-1.616,1.357,6.339,6.339,0,0,1-.319-.922,2.884,2.884,0,0,0-.354-.887.7.7,0,0,0-.273.158l-.186.156.276.889a5.649,5.649,0,0,1,.238.889c-.021,0-.4-.2-.838-.451l-.8-.451-.233.224-.233.224.5.278c.275.153.674.377.887.5l.387.219-.836.686-.836.686-.224-.282-.224-.282.306-.258.306-.258-.224-.3a1.421,1.421,0,0,0-.263-.3,2.077,2.077,0,0,0-.342.241l-.3.241-.217-.286-.217-.286.3-.263.3-.263-.233-.294c-.2-.251-.253-.279-.371-.2-.339.242-3.34,2.68-3.344,2.717a2.839,2.839,0,0,0,.456.4c.253.2,1.047.842,1.764,1.428s1.318,1.067,1.336,1.067a2.234,2.234,0,0,0,.291-.362c.306-.429.474-.453.807-.118l.243.244-.21.259c-.273.337-.407.608-.336.68.031.031.1.022.159-.02a5.881,5.881,0,0,1,1.518-.872,3.766,3.766,0,0,1,4.637,1.944l.34.69V451.6a3.554,3.554,0,0,1-.487,2.143c-.021.046.108.191.285.322.268.2.315.273.276.44a1.25,1.25,0,0,1-.538.656c-.111.06-.214.016-.468-.2l-.325-.28-.365.28a3.811,3.811,0,0,1-2.46.833,3.424,3.424,0,0,1-2.645-1.081,3.635,3.635,0,0,1-1.038-1.823,3.882,3.882,0,0,1,.257-2.594c.152-.346.181-.49.114-.557s-.13-.04-.243.1c-.49.624-.436.591-.715.446a.932.932,0,0,1-.341-.3c-.092-.173-.072-.218.32-.729l.162-.212-1.519-1.238c-.836-.681-1.557-1.25-1.6-1.265a8.745,8.745,0,0,0-.062,2.013l.021,2.041.479.025c.518.027.6.089.6.459s-.082.432-.6.458c-.682.035-.633.2.126.42a3.883,3.883,0,0,1,2.3,1.7,3.958,3.958,0,0,1,.187,3.768,4.3,4.3,0,0,1-2.317,1.96c-.836.243-.815.226-.815.668,0,.372-.015.4-.252.485C143.588,460.637,143.615,460.637,143.265,460.535Zm-.245-2.323c.023-.329.047-.366.285-.434a1,1,0,0,1,.52,0c.24.069.263.105.3.475s.055.4.24.379a3.4,3.4,0,0,0,1.555-.907,2.664,2.664,0,0,0,.8-2.052,4.28,4.28,0,0,0-.1-1.029,1.363,1.363,0,0,0-2.391-.55,1.21,1.21,0,0,0,.4,1.668,1.688,1.688,0,0,0,1.124,0c.124-.056.14-.012.14.381,0,.425-.01.447-.252.532a1.841,1.841,0,0,1-1.783-.4,1.187,1.187,0,0,0-.23-.234,2.039,2.039,0,0,0-.314.266,1.776,1.776,0,0,1-1.755.366l-.31-.093v-.439c0-.39.016-.431.14-.371a2.241,2.241,0,0,0,.635.069c.44,0,.523-.026.742-.238a1.209,1.209,0,0,0,0-1.739c-.741-.7-1.958-.12-2.24,1.061a3.1,3.1,0,0,0,1.178,3.221c.4.276,1.156.573,1.242.488A1.152,1.152,0,0,0,143.02,458.212Zm-6.374-3.461a2.905,2.905,0,0,0,1.8-1.714,1.351,1.351,0,0,0-.362-1.41c-.305-.307-.382-.344-.717-.344a1.172,1.172,0,0,0-1.222,1,1.214,1.214,0,0,0,.614,1.154l.311.154-.329.255a1.345,1.345,0,0,1-.437.254,1.451,1.451,0,0,1-.462-.328,1.608,1.608,0,0,1-.576-1.4l.048-.355-.4-.055a1.93,1.93,0,0,1-1.441-1.207c-.076-.2-.057-.246.218-.49a2,2,0,0,1,.349-.272c.026,0,.089.137.14.308a1.212,1.212,0,0,0,1.093.776,1.183,1.183,0,0,0,1.162-1.175,1.27,1.27,0,0,0-1.412-1.2,2.926,2.926,0,0,0-2.5,3.388c.09.563.266,1.041.383,1.041a.977.977,0,0,0,.321-.205c.233-.2.252-.2.49-.077a1.04,1.04,0,0,1,.382.414l.136.286-.3.275a2.234,2.234,0,0,0-.3.306,3.857,3.857,0,0,0,1.191.661A3.375,3.375,0,0,0,136.645,454.751Zm16.1-.12a2.6,2.6,0,0,0,.641-.386c.14-.156.137-.167-.116-.379-.3-.253-.327-.462-.094-.76.308-.394.452-.418.8-.133l.314.254.178-.388a2.425,2.425,0,0,0,.178-1.193,2.186,2.186,0,0,0-.226-1.268,3.118,3.118,0,0,0-1.463-1.506,1.55,1.55,0,0,0-2.1.58.945.945,0,0,0,.223,1.261,1.077,1.077,0,0,0,1.684-.041.968.968,0,0,0,.244-.478c0-.257.061-.25.422.049.341.283.357.369.146.783a1.7,1.7,0,0,1-1.38.925l-.322.013.051.341a1.592,1.592,0,0,1-.532,1.416,1.476,1.476,0,0,1-.507.382,1.2,1.2,0,0,1-.446-.256l-.317-.256.222-.1a1.176,1.176,0,0,0,.089-2.056,1.093,1.093,0,0,0-1.555.454,1.985,1.985,0,0,0,1.061,2.586,3.2,3.2,0,0,0,2.8.154Z" transform="translate(-131.555 -433.928)"/></svg>