<svg id="Ebene_1" data-name="Ebene 1" xmlns="http://www.w3.org/2000/svg" viewBox="0 0 86 24"><defs><style>.cls-1{fill:#503629;}</style></defs><path class="cls-1" d="M8.49,5.21H3.55v.41H5.13v8.17c0,2.44-.7,3.14-2.22,3.14A1,1,0,0,1,1.77,16v-.19c0-.89-.06-1.43-.85-1.43S0,15.22,0,15.47c0,1.14.51,2,2.76,2,2.69,0,4.11-.89,4.11-3.9V5.62H8.52Z"/><path class="cls-1" d="M9.12,15.54a1,1,0,0,0-.69.28,1,1,0,0,0-.29.7.86.86,0,0,0,.29.66,1,1,0,0,0,1.39,0,.9.9,0,0,0,.28-.66.93.93,0,0,0-.95-.95h0"/><path class="cls-1" d="M20.11,15.54a1,1,0,0,0-1,.91h0v0a.89.89,0,0,0,.32.66,1,1,0,0,0,1.39,0,.86.86,0,0,0,.29-.66,1,1,0,0,0-.29-.7.91.91,0,0,0-.66-.29"/><path class="cls-1" d="M16.69,5.21H11.82v.41h1.42v9.31a2.79,2.79,0,0,1-.13,1.14.94.94,0,0,1-.6.54,2.78,2.78,0,0,1-.92.16v.38h5.17v-.38a3.24,3.24,0,0,1-1-.13.94.94,0,0,1-.6-.53,1.6,1.6,0,0,1-.12-.77V12.11h1.3c3.73,0,4.78-1.48,4.78-3.48s-.67-3.42-4.44-3.42M16,11.64H15v-6h.89c2.88,0,3.58,1.18,3.58,3.08s-1.14,2.94-3.42,2.94"/><path class="cls-1" d="M36.55,16a1.87,1.87,0,0,1-.09-.82V5.62h1.3V5.24H34.69L31,14.33a.07.07,0,0,1-.07.06s-.06,0-.09-.06l-3.9-9.09H23.47v.38H25V15.73a1.28,1.28,0,0,1-.19.6,1,1,0,0,1-.54.38,2.69,2.69,0,0,1-.69.06v.38h3.39v-.38a2,2,0,0,1-.61-.09,1.15,1.15,0,0,1-.6-.38,1.32,1.32,0,0,1-.22-.61l0-.85v-8h.19s4.4,10.16,4.4,10.29h.41L34.62,7h.1v8.2a3.55,3.55,0,0,1-.1.86,1,1,0,0,1-.5.54,2.9,2.9,0,0,1-.86.16v.38H38v-.38a3.15,3.15,0,0,1-.89-.16,1.17,1.17,0,0,1-.54-.6"/><path class="cls-1" d="M42.92,8.41c-2.53,0-4.12,1.64-4.12,4.56,0,4.28,3.33,4.53,4.06,4.53,1.42,0,4.12-.89,4.12-4.63,0-2.91-1.75-4.46-4.06-4.46m0,8.55C41,17,40.7,16,40.7,13c0-2.34.16-4.12,2.19-4.12,2.19,0,2.22,1.84,2.22,3.93,0,3.07-.54,4.15-2.22,4.15"/><path class="cls-1" d="M53.57,8.53c-1.53,0-2,.89-2.41,1.81H51s-.22-1.3-.28-1.71h-3v.44h1.58V15a2.47,2.47,0,0,1-.19,1.2c-.15.29-.53.44-1.1.44h-.26v.54h4.88v-.54h-.22c-.64,0-.92-.12-1.08-.41A2.37,2.37,0,0,1,51.22,15V11.92c0-1,.79-2.21,1.71-2.21s1,1.49,2.06.88c.57-.34.44-2.06-1.42-2.06"/><path class="cls-1" d="M73.05,16.26c-.54,0-.7-.28-.73-.76V10.82A2.34,2.34,0,0,0,71.72,9a3.78,3.78,0,0,0-2.6-.7A4.49,4.49,0,0,0,66.43,9a1.58,1.58,0,0,0-.76,1.36.68.68,0,0,0,.22.6.85.85,0,0,0,.54.19c.47,0,.76-.25.85-.88a1.71,1.71,0,0,1,.38-1,1.5,1.5,0,0,1,1.17-.38,1.47,1.47,0,0,1,1.3.51,2.11,2.11,0,0,1,.35,1.24v1.48c-1.55.13-5.26.45-5.1,3.23a2.27,2.27,0,0,0,2.31,2A3.74,3.74,0,0,0,70.54,16a1.62,1.62,0,0,0,1.65,1.3c1.14,0,1.84-.57,1.9-1.94h-.28c-.07.64-.45,1-.76,1m-2.57-.92v.1a3.1,3.1,0,0,1-2,1,1.34,1.34,0,0,1-1.4-1.3h0V15c0-1.58,2.19-2.37,3.39-2.37Z"/><path class="cls-1" d="M83.06,16.2a2.43,2.43,0,0,1-.32-1.27V11.07a2.71,2.71,0,0,0-.29-1.43,2.17,2.17,0,0,0-.85-.85,3.12,3.12,0,0,0-1.3-.29,3,3,0,0,0-2.79,1.65h-.19L77,8.6H74.38V9h1.33v5.89a5,5,0,0,1-.1,1,.74.74,0,0,1-.5.54,2,2,0,0,1-.73.12v.54h4.21v-.54a1.1,1.1,0,0,1-.86-.35,2,2,0,0,1-.22-1.2V12.81a5.37,5.37,0,0,1,.32-2.44,1.9,1.9,0,0,1,1.71-.95,1.18,1.18,0,0,1,1.17.6A5.46,5.46,0,0,1,81,12v2.79a6,6,0,0,1,0,1,.76.76,0,0,1-.38.6,1.31,1.31,0,0,1-.67.19v.54H84v-.54c-.51-.06-.83-.19-1-.44"/><path class="cls-1" d="M64,8.06a.84.84,0,0,0-.5.66c-.07.35-.19.54-.38.61a1,1,0,0,1-.6,0,3.84,3.84,0,0,0-2.76-.91,3.19,3.19,0,0,0-3.42,2.91v.38c0,1.84.7,2.66,2.22,3a.07.07,0,1,1,0,.13c-1.3.22-2.44.6-2.44,1.87A1.4,1.4,0,0,0,57,18a7.07,7.07,0,0,0,2.53.38c.67,0,1.36,0,2,.09a2.46,2.46,0,0,1,1.11.38,1.18,1.18,0,0,1,.41,1,1.51,1.51,0,0,1-.92,1.37,5,5,0,0,1-2.31.47,3.57,3.57,0,0,1-2.12-.47A1.16,1.16,0,0,1,57.3,20a.7.7,0,0,0-.44-.89h-.1a.79.79,0,0,0-.72.32,1.26,1.26,0,0,0-.19.79,1.72,1.72,0,0,0,1.42,1.65,7.48,7.48,0,0,0,2.35.35,6.14,6.14,0,0,0,2.69-.51A2.79,2.79,0,0,0,64,19.18a2.51,2.51,0,0,0-.41-1.49c-.86-1.17-2.06-1-4.79-1.14-1.3,0-1.55-.22-1.55-.6,0-.61.48-.83,2.35-1.11s3.61-1,3.61-3.23A3.7,3.7,0,0,0,62.88,10,2,2,0,0,0,64,10a1.33,1.33,0,0,0,.77-.6,1,1,0,0,0,.15-.79A.69.69,0,0,0,64,8.06M59.74,14.3c-1.11,0-1.77-.41-1.77-2.66,0-1.59.54-2.76,1.77-2.76,1.4,0,1.78,1.08,1.78,2.73,0,2.34-.76,2.69-1.78,2.69"/></svg>