<svg id="Ebene_1" data-name="Ebene 1" xmlns="http://www.w3.org/2000/svg" viewBox="0 0 68 24"><defs><style>.cls-1{fill:#fff;}</style></defs><polygon class="cls-1" points="35.98 12.01 26.99 3 26.99 21 35.98 12.01"/><polygon class="cls-1" points="18 12.01 26.99 3 9.01 3 18 12.01"/><polygon class="cls-1" points="0 12.01 9.01 21 9.01 3 0 12.01"/><polygon class="cls-1" points="18 12.01 9.01 21 26.99 21 18 12.01"/><path class="cls-1" d="M43.87,12.54H40.61v3.21H39V8.22h1.63v3.09h3.26V8.22H45.5v7.53H43.87Z"/><path class="cls-1" d="M49.43,15.9c-1.63,0-3-.65-3-2.45h1.63a1.22,1.22,0,0,0,1.37,1.29c.66,0,1.42-.34,1.42-1.08,0-.59-.51-.76-1.35-1L49,12.5c-1.19-.34-2.37-.81-2.37-2.16,0-1.67,1.56-2.24,3-2.24s2.73.51,2.75,2.18H50.7A1.09,1.09,0,0,0,49.47,9.2c-.61,0-1.2.31-1.2,1s.51.72,1.56,1.06l.64.19c1.29.4,2.11.85,2.11,2.11C52.56,15.25,50.91,15.9,49.43,15.9Z"/><path class="cls-1" d="M53.49,8.25h2.63a6.72,6.72,0,0,1,1.48.08,1.84,1.84,0,0,1,1.6,1.82,1.69,1.69,0,0,1-1.5,1.69c1,.19,1.78.7,1.78,1.82,0,1.71-1.69,2.09-3,2.09h-3Zm2.63,3.13c.71,0,1.45-.15,1.45-1s-.67-1-1.35-1H55.08v2Zm.14,3.25c.76,0,1.5-.17,1.5-1.1s-.63-1.1-1.41-1.1H55.06v2.2Z"/><path class="cls-1" d="M63.71,15.9c-2.43,0-3.51-1.54-3.51-3.85s1.2-4,3.59-4c1.5,0,3,.67,3,2.37H65.1A1.2,1.2,0,0,0,63.79,9.3c-1.48,0-1.92,1.59-1.92,2.8s.44,2.6,1.86,2.6a1.31,1.31,0,0,0,1.4-1.17h1.69C66.65,15.27,65.27,15.9,63.71,15.9Z"/></svg>