<svg xmlns="http://www.w3.org/2000/svg" xmlns:xlink="http://www.w3.org/1999/xlink" viewBox="0 0 98.52 24"><defs><style>.cls-1{fill:none;}.cls-2{isolation:isolate;}.cls-3{fill:#231f20;}.cls-4{clip-path:url(#clip-path);}.cls-5{fill:url(#Unbenannter_Verlauf_4);}.cls-6{clip-path:url(#clip-path-2);}.cls-7{fill:url(#Unbenannter_Verlauf_2);}.cls-8{mix-blend-mode:multiply;}.cls-9{clip-path:url(#clip-path-3);}.cls-10{clip-path:url(#clip-path-4);}.cls-11{fill:url(#Unbenannter_Verlauf_3);}.cls-12{fill:#009a7b;}.cls-13{fill:#fff;}</style><clipPath id="clip-path"><rect class="cls-1" y="2" width="20.07" height="20"/></clipPath><linearGradient id="Unbenannter_Verlauf_4" x1="-315.3" y1="-122.66" x2="-315.08" y2="-122.66" gradientTransform="translate(-12249.03 31514.36) rotate(90) scale(99.95)" gradientUnits="userSpaceOnUse"><stop offset="0" stop-color="#009a7b"/><stop offset="0.6" stop-color="#77c1b1"/><stop offset="1" stop-color="#009a7b"/></linearGradient><clipPath id="clip-path-2"><path class="cls-1" d="M1.57,2.36c-.39,0-.64.32-.71.78a49.37,49.37,0,0,0-.5,8.2,75.16,75.16,0,0,0,.5,9.23.78.78,0,0,0,.71.78H18.94a.73.73,0,0,0,.71-.78s-.2-4.28-.2-8.45.2-9,.2-9a.74.74,0,0,0-.71-.78Z"/></clipPath><linearGradient id="Unbenannter_Verlauf_2" x1="-315.62" y1="-122.38" x2="-315.41" y2="-122.38" gradientTransform="translate(-13732.18 35437.27) rotate(90) scale(112.29)" gradientUnits="userSpaceOnUse"><stop offset="0" stop-color="#009a7b"/><stop offset="0.3" stop-color="#77c1b1"/><stop offset="0.55" stop-color="#009a7b"/><stop offset="0.84" stop-color="#009a7b"/><stop offset="1" stop-color="#00a184"/><stop offset="1" stop-color="#00a184"/></linearGradient><clipPath id="clip-path-3"><rect class="cls-1" x="0.36" y="2.36" width="19.29" height="19"/></clipPath><clipPath id="clip-path-4"><path class="cls-1" d="M1.55,2.36c-.38,0-.63.33-.69.78a49.37,49.37,0,0,0-.5,8.2,75.16,75.16,0,0,0,.5,9.23.78.78,0,0,0,.71.78H18.94a.73.73,0,0,0,.71-.78s-.2-4.28-.2-8.45.2-9,.2-9A.75.75,0,0,0,19,2.36Z"/></clipPath><linearGradient id="Unbenannter_Verlauf_3" x1="-315.62" y1="-122.38" x2="-315.41" y2="-122.38" gradientTransform="translate(-13732.18 35437.27) rotate(90) scale(112.29)" gradientUnits="userSpaceOnUse"><stop offset="0" stop-color="#fff"/><stop offset="0.3" stop-color="#fff"/><stop offset="0.55" stop-color="#fff"/><stop offset="0.84" stop-color="#b1b3b5"/><stop offset="0.87" stop-color="#babcbd"/><stop offset="0.92" stop-color="#d2d3d5"/><stop offset="0.99" stop-color="#fafafa"/><stop offset="1" stop-color="#fff"/></linearGradient></defs><g class="cls-2"><g id="Ebene_1" data-name="Ebene 1"><path class="cls-3" d="M25.13,8.6c0,.72.08,2.56.08,3.23s0,2.69-.11,3.58v.07h3.25c1.59,0,3.28-.5,3.28-1.91,0-.88-.65-1.53-1.85-1.89a1.76,1.76,0,0,0,1.49-1.53c0-1.16-1.33-1.59-2.58-1.62H25.11Zm2.5.7c1.35,0,1.85.29,1.85,1a.79.79,0,0,1-.19.52,1.65,1.65,0,0,1-1.4.43h0l-.37,1h.37a2.14,2.14,0,0,1,1.73.62.93.93,0,0,1,.23.63c0,.77-.67,1.16-2,1.16H27c0-1-.05-2.41-.05-2.83s0-1.56.05-2.48a3.91,3.91,0,0,1,.65,0"/><path class="cls-3" d="M39.1,8.53H37.52l.06,1.75c0,.87.06,1.76.12,2.62A4.69,4.69,0,0,0,37,11.8s-1.64-2.54-2.21-3.25l0,0H33V8.6c.06.72.08,2.56.08,3.23s0,2.69-.08,3.58l0,.07h1.63v-.07c-.09-1.7-.09-3.41-.09-5.07a2.35,2.35,0,0,0,.38.76s2.83,4.12,3,4.35l0,0h1.3v-.07c-.1-.89-.11-3-.11-3.58s.05-2.51.09-3.23l0-.07Z"/><path class="cls-3" d="M41,8.6c.07.72.09,2.56.09,3.23s0,2.69-.09,3.58v.07h1.94v-.07c-.07-.64-.1-1.87-.11-2.8l.37,0h.27c2.56,0,3.8-.67,3.8-2.09,0-1.61-1.74-2-3.2-2H41Zm2.4.77a2.24,2.24,0,0,1,1.84.55.94.94,0,0,1,.22.62c0,1-1.14,1.23-2.09,1.23l-.38,0h-.16c0-.23,0-.54,0-.88s0-1,0-1.44a4.06,4.06,0,0,1,.56,0"/><path class="cls-3" d="M50.94,8.6c.06.72.1,2.56.1,3.23s0,2.69-.11,3.58v.07h1.94v-.07c-.06-.64-.09-1.87-.09-2.8l.34,0h.29c2.55,0,3.8-.67,3.8-2.09,0-1.61-1.75-2-3.21-2H50.94Zm2.39.77a2.27,2.27,0,0,1,1.85.55.93.93,0,0,1,.21.62c0,1-1.13,1.23-2.07,1.23l-.38,0h-.16c0-.23,0-.54,0-.88s0-1,0-1.44a3.67,3.67,0,0,1,.55,0"/><path class="cls-3" d="M59.8,8.53h0v0c-.36,1-2.69,6-3.06,6.82l0,.09h1.65l0,0c.14-.48.34-1,.55-1.59l1.38,0h1.38c.29.75.52,1.31.62,1.6l0,0H64.2l-3.09-7H59.8Zm.47,2.05c.15.33.55,1.25,1,2.35h-1l-1,0c.37-.88.73-1.67,1-2.35"/><path class="cls-3" d="M65,8.6c.06.72.08,2.56.08,3.23s0,2.69-.1,3.58v.07h2v-.07c-.1-.9-.11-3-.11-3.58s0-1.56.06-2.43l.53,0a2.25,2.25,0,0,1,1.84.55.93.93,0,0,1,.21.62A1.38,1.38,0,0,1,68,11.79a2.1,2.1,0,0,1-.41,0l-.14,0,.08.13c.69,1,1.73,2.75,2.15,3.58l0,0h2.08l-.05-.1-2-3a.2.2,0,0,1,0-.05c1.07-.32,1.59-.91,1.59-1.83,0-1.6-1.75-2-3.22-2H65Z"/><path class="cls-3" d="M74.52,8.53H72.66V8.6c0,.72.09,2.56.09,3.23s0,2.68-.1,3.58v.07h1.92v-.07c-.07-.9-.09-3-.09-3.58s0-2.51.09-3.23V8.53Z"/><path class="cls-3" d="M76.34,8.6c.06.72.09,2.56.09,3.23s0,2.69-.1,3.58v.07h3.24c1.59,0,3.28-.5,3.28-1.91,0-.88-.64-1.53-1.85-1.89a1.76,1.76,0,0,0,1.49-1.53c0-1.16-1.33-1.59-2.56-1.62H76.33Zm2.5.7h0c1.37,0,1.86.29,1.86,1a.74.74,0,0,1-.19.52,1.65,1.65,0,0,1-1.4.43h0l-.37,1h.37a2.14,2.14,0,0,1,1.73.62.94.94,0,0,1,.24.63c0,.77-.68,1.16-2,1.16h-.8c-.06-1-.06-2.41-.06-2.83s0-1.56.06-2.48a3.56,3.56,0,0,1,.63,0"/><path class="cls-3" d="M87.62,8.53H86.31v0c-.39,1-2.85,6.38-3,6.82l0,.1h1.66v0c.14-.48.34-1,.55-1.6l1.37,0,1.15,0h.24c.3.75.52,1.32.62,1.6l0,0h1.92l-3.09-7Zm-.8,2c.15.33.55,1.25,1,2.36h-2c.37-.89.72-1.68,1-2.36"/><path class="cls-3" d="M91.3,10.33c0,1.22,1.22,1.71,2.31,2.16.84.33,1.73.69,1.73,1.27a.65.65,0,0,1-.13.43,1.53,1.53,0,0,1-1.27.3,6,6,0,0,1-2.2-.61l-.32-.15v1.51l.22.06.12,0a8.61,8.61,0,0,0,2,.28c2,0,3.27-.81,3.27-2.15s-1.26-1.76-2.38-2.2c-.82-.33-1.67-.66-1.67-1.2,0-.16,0-.62,1.06-.62a5.55,5.55,0,0,1,2,.49l.39.16V8.56L96,8.49a9.08,9.08,0,0,0-1.75-.21c-1.76,0-2.94.83-2.94,2.05"/><g class="cls-4"><rect class="cls-5" y="2" width="20.07" height="20"/></g><g class="cls-6"><rect class="cls-7" x="0.36" y="2.36" width="19.29" height="19"/></g><g class="cls-8"><g class="cls-9"><g class="cls-10"><rect class="cls-11" x="0.36" y="2.36" width="19.29" height="19"/></g></g></g><path class="cls-12" d="M15.59,7.4c-1.24.73-1.62.79-3,1.59l.07-.15a14.9,14.9,0,0,0,1.48-1.77,31.21,31.21,0,0,0-4.34.5l.06-.14a18.69,18.69,0,0,1,4.46-1.27,15.17,15.17,0,0,0-3-1.8l.06-.14a14.56,14.56,0,0,1,4.85,1.56,7.72,7.72,0,0,1,1.57-.21s-.11.46-.93,1A11.83,11.83,0,0,1,16.19,11a8,8,0,0,0-.6-3.55"/><path class="cls-12" d="M6.52,18.22l.06-.15a5.17,5.17,0,0,1-1.85-.95,5.49,5.49,0,0,1,.67-1.29l.07-.14c-.57.08-1.08.29-1.57.38a8.9,8.9,0,0,1-.73-2.48l-.07.14a8.58,8.58,0,0,0,0,2.53A9.14,9.14,0,0,0,2,16.53l-.06.14a17.14,17.14,0,0,0,1.54.84,5.33,5.33,0,0,0,1.17,1.65L4.72,19a2.8,2.8,0,0,1-.17-1.12,7.66,7.66,0,0,0,2,.32"/><path class="cls-12" d="M8.35,8.17a6.83,6.83,0,0,0-.48,1.09h0a10.84,10.84,0,0,1,3.37,1.05l-.06.14a10.73,10.73,0,0,0-3.05-.2,2.35,2.35,0,0,0-.72.13,11.69,11.69,0,0,0-.62,2.43L6.67,13C6.38,12.24,6,10.84,6,10.84A22.08,22.08,0,0,0,3.28,13a10.67,10.67,0,0,1,2.07-3,3.54,3.54,0,0,0-2-.57l.06-.14a11.56,11.56,0,0,1,1.91-.2,10.06,10.06,0,0,1,1.12,0,5.67,5.67,0,0,1,1.89-1"/><path class="cls-12" d="M10.32,17c-.33.43-.6.78-1,1.18a7.17,7.17,0,0,1-1.65.1l-.07.13a4.26,4.26,0,0,0,1.12.39,10.21,10.21,0,0,1-1,.69l-.07.14a8.15,8.15,0,0,0,2.07-.77,3.52,3.52,0,0,0,.84-.06l.06-.13c0-.14-.16-.23-.2-.43a14.69,14.69,0,0,0,1.48-1.33l.06-.14a11.35,11.35,0,0,1-1.61,1c0-.26,0-.5,0-.8"/><path class="cls-13" d="M15.65,7.26c-1.24.73-1.62.79-3,1.59a14.46,14.46,0,0,0,1.54-1.91,29.89,29.89,0,0,0-4.34.49A17.8,17.8,0,0,1,14.41,6a15.64,15.64,0,0,0-3-1.79A13,13,0,0,1,16.3,5.64a7.4,7.4,0,0,1,1.59-.2,2.11,2.11,0,0,1-.95,1,11.4,11.4,0,0,1-.69,4.36,7.77,7.77,0,0,0-.6-3.55"/><path class="cls-13" d="M6.58,18.07A4.88,4.88,0,0,1,4.79,17a5.36,5.36,0,0,1,.68-1.29c-.58.08-1,.15-1.5.24a7.67,7.67,0,0,1-.8-2.34,8.58,8.58,0,0,0,0,2.53A7.84,7.84,0,0,0,2,16.53a14.14,14.14,0,0,0,1.54.84A5.25,5.25,0,0,0,4.72,19a3,3,0,0,1-.11-1.26,7.32,7.32,0,0,0,2,.31"/><path class="cls-13" d="M8.44,8.05h0a3.9,3.9,0,0,0-.55,1.07,9.15,9.15,0,0,1,3.3,1.19,11.12,11.12,0,0,0-3-.2,2.31,2.31,0,0,0-.71.13,12.66,12.66,0,0,0-.69,2.57C6.44,12.1,6,10.7,6,10.7a21.29,21.29,0,0,0-2.67,2.18,10.37,10.37,0,0,1,2.06-3,3.42,3.42,0,0,0-2-.58A7.93,7.93,0,0,1,5.4,9,10.19,10.19,0,0,1,6.53,9a5.6,5.6,0,0,1,1.91-1"/><path class="cls-13" d="M10.38,16.81a13.72,13.72,0,0,1-1,1.18,6,6,0,0,1-1.71.24,4.71,4.71,0,0,0,1.11.38,7.63,7.63,0,0,1-1.08.83,8.09,8.09,0,0,0,2.06-.77,4.21,4.21,0,0,0,.84-.05,5.29,5.29,0,0,1-.14-.57A13.68,13.68,0,0,0,12,16.72a10.54,10.54,0,0,1-1.54.9c0-.27,0-.5-.06-.81"/></g></g></svg>