<svg id="Ebene_1" data-name="Ebene 1" xmlns="http://www.w3.org/2000/svg" viewBox="0 0 107 24"><defs><style>.cls-1{fill:#fff;}</style></defs><path class="cls-1" d="M30.47,7.3v9.38H32A4.5,4.5,0,0,0,36.55,12,4.49,4.49,0,0,0,32,7.3ZM27.71,18.84V5.14h3.77c4.22,0,8,1.41,8,6.85s-3.73,6.85-7.95,6.85Z"/><polygon class="cls-1" points="40.18 18.84 40.18 16.6 46.65 7.3 40.43 7.3 40.43 5.14 49.58 5.14 49.58 7.38 43.06 16.68 49.72 16.68 49.72 18.84 40.18 18.84"/><path class="cls-1" d="M55.14,18.84V5.14H60c1.78,0,4.44.51,4.44,3.51a3.05,3.05,0,0,1-2.74,3.06,3.26,3.26,0,0,1,3.16,3.16c0,3.46-3.12,4-4.86,4ZM57.9,7.3v3.37H59c1.16,0,2.6-.25,2.6-1.66,0-1.59-1.4-1.71-2.66-1.71Zm0,5.41v4h1.31c1.28,0,2.84-.32,2.84-1.91,0-1.78-1.46-2.06-2.84-2.06Z"/><path class="cls-1" d="M65.38,18.84l5.36-13.7h3.12l5.41,13.7H76.21L75,15.7H69.44l-1.2,3.14Zm8.87-5.3-2-5.65-2,5.65Z"/><polygon class="cls-1" points="94.98 18.84 94.98 5.14 97.78 5.14 97.78 11.03 102.72 5.14 106.11 5.14 100.44 11.6 106.34 18.84 102.73 18.84 97.78 12.48 97.78 18.84 94.98 18.84"/><polygon class="cls-1" points="80.61 18.84 80.61 5.14 84 5.14 89.28 15.38 89.28 5.14 91.93 5.14 91.93 18.84 88.56 18.84 83.25 8.59 83.25 18.84 80.61 18.84"/><path class="cls-1" d="M20.84,16.53H12.9c-.22,1.14-.4,2.1-.47,2.47h8.41Z"/><polygon class="cls-1" points="0 16.53 0 19 8.35 19 7.8 16.53 0 16.53"/><path class="cls-1" d="M4.11,10.73,3.5,8.19H8.69l1.68,7.31h.07l1.06-4.69c.53-2.12.73-2.62,3.74-2.62H17.4s-.44,2-1,4.08c-.21.81-2,.72-1.92,0,0-.08.09-.65.16-1.05.1-.59-.59-.66-.71-.08-.09.41-.48,2.47-.86,4.4h7.75V5H0V15.5H7.56L6.49,10.74Z"/></svg>