<svg id="Ebene_1" data-name="Ebene 1" xmlns="http://www.w3.org/2000/svg" viewBox="0 0 110 24"><defs><style>.cls-1{fill:#333;}</style></defs><path class="cls-1" d="M104.59,15.32v0l-2.43-6.86h-1.38l3.12,8.8v.07a4.6,4.6,0,0,1-1.18,2.22,2.34,2.34,0,0,1-1.25.34c-.14,0-.55-.07-.69-.07v1a3.47,3.47,0,0,0,.9.14,2.65,2.65,0,0,0,1.66-.48,5.3,5.3,0,0,0,1.46-2.36L108,8.46H106.6Z"/><path class="cls-1" d="M99.88,13.17v-.83a4,4,0,0,0-1.11-3.18,3.71,3.71,0,0,0-2.63-.84,3.79,3.79,0,0,0-1.59.35,2.56,2.56,0,0,0-1.18.9,5.32,5.32,0,0,0-1,3.4,4.81,4.81,0,0,0,1.25,3.6,4.09,4.09,0,0,0,2.77,1,3.43,3.43,0,0,0,3.39-2.08L98.7,15a2.38,2.38,0,0,1-2.28,1.53,2.57,2.57,0,0,1-1.94-.9,4,4,0,0,1-.7-2.36h6.1Zm-1.39-1.11H93.85c.14-1.8.9-2.7,2.36-2.7S98.49,10.26,98.49,12.06Z"/><path class="cls-1" d="M19,9.64a3.39,3.39,0,0,0-2.84-1.32A3.59,3.59,0,0,0,13.3,9.64a5.52,5.52,0,0,0-1,3.26,5.51,5.51,0,0,0,1,3.25,3.39,3.39,0,0,0,2.84,1.32A3.59,3.59,0,0,0,19,16.15a5.51,5.51,0,0,0,1-3.25A5.37,5.37,0,0,0,19,9.64Zm-2.84,6.79c-1.53,0-2.36-1.32-2.36-3.53s.9-3.54,2.36-3.54,2.35,1.32,2.35,3.54S17.59,16.43,16.14,16.43Z"/><path class="cls-1" d="M23.06,12.34c.35-1.8,1.32-2.7,3-2.7V8.32a3.14,3.14,0,0,0-3,1.87h0V8.46H21.68v8.87h1.38Z"/><path class="cls-1" d="M57.07,8.19a1.82,1.82,0,0,1,.56-1.39,2.17,2.17,0,0,1,1.59-.48,2.74,2.74,0,0,1,1.87.62,3,3,0,0,1,1,1.45l1.32-.13A4.26,4.26,0,0,0,56.66,6a3,3,0,0,0-1,2.22,2.76,2.76,0,0,0,1.18,2.28,13.6,13.6,0,0,0,2.49,1.18c1.52.55,3.05,1.11,3.05,2.49a1.93,1.93,0,0,1-.63,1.53,2.72,2.72,0,0,1-1.94.62,3.33,3.33,0,0,1-3.18-2.42l-1.32.34a6.85,6.85,0,0,0,1.46,2.22,4.23,4.23,0,0,0,3,1A4.32,4.32,0,0,0,63,16.43a3.34,3.34,0,0,0,.9-2.43,2.78,2.78,0,0,0-1.25-2.35A10.36,10.36,0,0,0,60,10.47C58.46,9.92,57.07,9.43,57.07,8.19Z"/><path class="cls-1" d="M66,9.57H64.69V8.46H66V5.55h1.38V8.46h1.53V9.57H67.39v6.1c0,.41.07.76,1,.76h.49v1a4.9,4.9,0,0,1-.9.14,2.43,2.43,0,0,1-1.39-.28,1.28,1.28,0,0,1-.55-1C66,15.74,66,9.57,66,9.57Z"/><path class="cls-1" d="M90,15.6c0,.41.14.76,1,.76h.49v1a4.9,4.9,0,0,1-.9.14,2.43,2.43,0,0,1-1.39-.28,1.31,1.31,0,0,1-.55-1V5H90Z"/><path class="cls-1" d="M46.27,10.75a4.18,4.18,0,0,1,2.49-1.39c1,0,1.39.49,1.39,1.53v6.37h1.38V10.89A2.45,2.45,0,0,0,48.9,8.26a3.67,3.67,0,0,0-2.63,1.38h0V8.46H44.88v8.87h1.39Z"/><path class="cls-1" d="M41.14,16.29a1.09,1.09,0,0,0,.63,1,1.91,1.91,0,0,0,1.24.07v-1c-.27,0-.48-.14-.48-.55V11a2.39,2.39,0,0,0-1-2.08,3.55,3.55,0,0,0-2.15-.63A3.71,3.71,0,0,0,36,10.19l1.11.56a2.15,2.15,0,0,1,2.21-1.39c1.18,0,1.8.56,1.8,1.6v.48c-.07.07-.14.07-.48.14a8.65,8.65,0,0,0-3.53,1A2.8,2.8,0,0,0,35.67,15a2.49,2.49,0,0,0,.83,1.87,3.3,3.3,0,0,0,4.64-.55Zm0-1.52c-.07.76-1.52,1.73-2.7,1.66A1.55,1.55,0,0,1,37.06,15c-.14-1.45,1-2.07,3.39-2.28a1.92,1.92,0,0,0,.62-.14v2.15Z"/><path class="cls-1" d="M75.77,16.29a1,1,0,0,0,.63,1,1.94,1.94,0,0,0,1.25.07v-1c-.28,0-.49-.14-.49-.55V11a2.39,2.39,0,0,0-1-2.08A3.53,3.53,0,0,0,74,8.32a3.71,3.71,0,0,0-3.32,1.87l1.11.56A2.16,2.16,0,0,1,74,9.36c1.18,0,1.8.56,1.8,1.6v.48c-.06.07-.13.07-.48.14a8.65,8.65,0,0,0-3.53,1A2.8,2.8,0,0,0,70.3,15a2.49,2.49,0,0,0,.83,1.87,3.31,3.31,0,0,0,4.64-.55Zm0-1.52c-.06.76-1.52,1.73-2.7,1.66A1.55,1.55,0,0,1,71.69,15c-.14-1.45,1-2.07,3.39-2.28a2,2,0,0,0,.63-.14v2.15Z"/><path class="cls-1" d="M5.26,15,2.35,5.28H0v12H1.39V6.39L4.71,17.33H5.82L9.07,6.39V17.33h1.39v-12H8.17L5.26,15Z"/><path class="cls-1" d="M80.9,10.75a4.21,4.21,0,0,1,2.49-1.39c1,0,1.39.49,1.39,1.53v6.37h1.38V10.89a2.45,2.45,0,0,0-2.63-2.63A3.67,3.67,0,0,0,80.9,9.64h0V8.46H79.52v8.87H80.9Z"/><path class="cls-1" d="M32.9,8.46l-.35,1a2.5,2.5,0,0,0-2.21-1.11c-1.6,0-3.81,1-3.81,4.58s2.21,4.57,3.74,4.57a2.85,2.85,0,0,0,2.21-1.18h.07V18a2,2,0,0,1-2.07,1.94,6.9,6.9,0,0,1-2.77-.55v1.18a7.57,7.57,0,0,0,2.63.48c2.49,0,3.6-1.39,3.6-3.32V8.46Zm-.35,6.31a2.36,2.36,0,0,1-2.07,1.59c-1.46,0-2.43-.9-2.43-3.53,0-2.22.9-3.4,2.43-3.4a2.52,2.52,0,0,1,2.07,1.18Z"/></svg>