<svg id="Ebene_1" data-name="Ebene 1" xmlns="http://www.w3.org/2000/svg" viewBox="0 0 86 24"><defs><style>.cls-1{fill:#fff;}</style></defs><path class="cls-1" d="M8.49,6H3.55v.41H5.13v8.17c0,2.44-.7,3.14-2.22,3.14a1,1,0,0,1-1.14-.92v-.19c0-.89-.06-1.42-.85-1.42S0,16,0,16.26c0,1.14.51,2,2.76,2,2.69,0,4.11-.89,4.11-3.9V6.41H8.52Z"/><path class="cls-1" d="M9.12,16.33a1,1,0,0,0-.69.28,1,1,0,0,0-.29.7.85.85,0,0,0,.29.66,1,1,0,0,0,1.39,0,.9.9,0,0,0,.28-.66.93.93,0,0,0-.95-.95h0"/><path class="cls-1" d="M20.11,16.33a1,1,0,0,0-1,.92h0v0a.89.89,0,0,0,.32.66,1,1,0,0,0,1.39,0,.86.86,0,0,0,.29-.66,1,1,0,0,0-.29-.7.91.91,0,0,0-.66-.29"/><path class="cls-1" d="M16.69,6H11.82v.41h1.42v9.31a2.86,2.86,0,0,1-.13,1.15,1,1,0,0,1-.6.53,2.78,2.78,0,0,1-.92.16v.38h5.17v-.38a3.58,3.58,0,0,1-1-.12,1,1,0,0,1-.6-.54,1.58,1.58,0,0,1-.12-.76V12.91h1.3c3.73,0,4.78-1.49,4.78-3.49S20.46,6,16.69,6M16,12.43H15V6.48h.89c2.88,0,3.58,1.17,3.58,3.07s-1.14,2.94-3.42,2.94"/><path class="cls-1" d="M36.55,16.83a1.87,1.87,0,0,1-.09-.82V6.41h1.3V6H34.69L31,15.12a.08.08,0,0,1-.07.07s-.06,0-.09-.07L26.89,6H23.47v.38H25V16.52a1.28,1.28,0,0,1-.19.6,1,1,0,0,1-.54.38,2.69,2.69,0,0,1-.69.06v.38h3.39v-.38a2,2,0,0,1-.61-.09,1.15,1.15,0,0,1-.6-.38,1.32,1.32,0,0,1-.22-.61l0-.85v-8h.19s4.4,10.17,4.4,10.29h.41l4.15-10.2h.1V16a3.53,3.53,0,0,1-.1.85.89.89,0,0,1-.5.54,2.61,2.61,0,0,1-.86.16v.38H38V17.5a2.84,2.84,0,0,1-.89-.16,1.17,1.17,0,0,1-.54-.6"/><path class="cls-1" d="M42.92,9.2c-2.53,0-4.12,1.65-4.12,4.56,0,4.28,3.33,4.53,4.06,4.53,1.42,0,4.12-.89,4.12-4.62,0-2.92-1.75-4.47-4.06-4.47m0,8.55c-1.9,0-2.19-.95-2.19-4,0-2.34.16-4.12,2.19-4.12,2.19,0,2.22,1.84,2.22,3.93,0,3.07-.54,4.15-2.22,4.15"/><path class="cls-1" d="M53.57,9.33c-1.53,0-2,.88-2.41,1.8H51s-.22-1.3-.28-1.71h-3v.44h1.58v5.93a2.47,2.47,0,0,1-.19,1.2c-.15.29-.53.45-1.1.45h-.26V18h4.88v-.53h-.22c-.64,0-.92-.13-1.08-.42a2.37,2.37,0,0,1-.19-1.23V12.72c0-1,.79-2.22,1.71-2.22s1,1.49,2.06.89c.57-.35.44-2.06-1.42-2.06"/><path class="cls-1" d="M73.05,17.06c-.54,0-.7-.29-.73-.77V11.61a2.34,2.34,0,0,0-.6-1.78,3.79,3.79,0,0,0-2.6-.69,4.41,4.41,0,0,0-2.69.66,1.6,1.6,0,0,0-.76,1.36.7.7,0,0,0,.22.61.91.91,0,0,0,.54.19c.47,0,.76-.26.85-.89a1.71,1.71,0,0,1,.38-1,1.5,1.5,0,0,1,1.17-.38,1.47,1.47,0,0,1,1.3.51,2.11,2.11,0,0,1,.35,1.24v1.49c-1.55.12-5.26.44-5.1,3.23a2.27,2.27,0,0,0,2.31,2,3.71,3.71,0,0,0,2.85-1.42A1.62,1.62,0,0,0,72.19,18c1.14,0,1.84-.57,1.9-1.94h-.28c-.07.64-.45,1-.76,1m-2.57-.92v.09a3.16,3.16,0,0,1-2,1,1.35,1.35,0,0,1-1.4-1.3h0v-.19c0-1.59,2.19-2.38,3.39-2.38Z"/><path class="cls-1" d="M83.06,17a2.43,2.43,0,0,1-.32-1.27V11.86a2.71,2.71,0,0,0-.29-1.43,2.24,2.24,0,0,0-.85-.85,3.12,3.12,0,0,0-1.3-.29,3.05,3.05,0,0,0-2.79,1.65h-.19L77,9.39H74.38v.44h1.33v5.89a5,5,0,0,1-.1,1,.74.74,0,0,1-.5.54,2,2,0,0,1-.73.12v.54h4.21V17.4a1.09,1.09,0,0,1-.86-.34,2.05,2.05,0,0,1-.22-1.21V13.6a5.39,5.39,0,0,1,.32-2.44,1.9,1.9,0,0,1,1.71-.95,1.18,1.18,0,0,1,1.17.6,5.49,5.49,0,0,1,.29,2V15.6a6,6,0,0,1,0,1,.79.79,0,0,1-.38.61,1.42,1.42,0,0,1-.67.19V18H84v-.53c-.51-.07-.83-.19-1-.45"/><path class="cls-1" d="M64,8.85a.84.84,0,0,0-.5.67c-.07.34-.19.53-.38.6a1,1,0,0,1-.6,0,3.8,3.8,0,0,0-2.76-.92,3.19,3.19,0,0,0-3.42,2.91v.38c0,1.84.7,2.66,2.22,3a.07.07,0,1,1,0,.13c-1.3.22-2.44.6-2.44,1.87a1.4,1.4,0,0,0,1,1.33,7.07,7.07,0,0,0,2.53.38c.67,0,1.36,0,2,.09a2.46,2.46,0,0,1,1.11.38,1.19,1.19,0,0,1,.41,1A1.5,1.5,0,0,1,62.18,22a4.89,4.89,0,0,1-2.31.47A3.5,3.5,0,0,1,57.75,22a1.16,1.16,0,0,1-.45-1.21.68.68,0,0,0-.44-.88h-.1a.76.76,0,0,0-.72.31,1.26,1.26,0,0,0-.19.79,1.72,1.72,0,0,0,1.42,1.65,7.2,7.2,0,0,0,2.35.35,6.14,6.14,0,0,0,2.69-.51A2.79,2.79,0,0,0,64,20a2.51,2.51,0,0,0-.41-1.49c-.86-1.17-2.06-1-4.79-1.14-1.3,0-1.55-.22-1.55-.6,0-.6.48-.83,2.35-1.11s3.61-1,3.61-3.23a3.7,3.7,0,0,0-.35-1.62,2,2,0,0,0,1.07,0,1.29,1.29,0,0,0,.77-.6,1,1,0,0,0,.15-.79A.69.69,0,0,0,64,8.85m-4.21,6.24c-1.11,0-1.77-.41-1.77-2.66,0-1.58.54-2.76,1.77-2.76,1.4,0,1.78,1.08,1.78,2.73,0,2.34-.76,2.69-1.78,2.69"/></svg>