<svg id="Ebene_1" data-name="Ebene 1" xmlns="http://www.w3.org/2000/svg" viewBox="0 0 93 24"><defs><style>.cls-1{fill:#fff;}</style></defs><path class="cls-1" d="M30,5a7.77,7.77,0,0,0-2.92-.67c-1.35,0-2,.29-2,.8,0,1.49,6,.3,6,3.47,0,1.32-1.23,2.33-3.7,2.33a7.71,7.71,0,0,1-3.93-1L24,8.74a6.79,6.79,0,0,0,3.4.93c1.46,0,2.25-.43,2.25-1.06,0-1.63-6-.41-6-3.39,0-1.28,1.22-2.16,3.44-2.16a7.59,7.59,0,0,1,3.5.82Z"/><path class="cls-1" d="M36.68,11a4.1,4.1,0,0,1-4.39-4,4.11,4.11,0,0,1,4.39-4,4.09,4.09,0,0,1,4.37,4,4.08,4.08,0,0,1-4.37,4m0-6.69A2.74,2.74,0,0,0,33.74,7a2.7,2.7,0,0,0,2.94,2.71,2.72,2.72,0,1,0,0-5.42"/><path class="cls-1" d="M46.78,11c-2.52,0-4.42-1.59-4.42-4s1.93-4,4.42-4a5.57,5.57,0,0,1,3.5,1.12l-.74,1.11a4.26,4.26,0,0,0-2.72-.93,2.7,2.7,0,1,0,0,5.36,4.45,4.45,0,0,0,2.76-.91l.75,1.11A5.79,5.79,0,0,1,46.78,11"/><rect class="cls-1" x="51.87" y="3.24" width="1.4" height="7.53"/><polygon class="cls-1" points="55.33 10.77 55.33 3.24 62.19 3.24 62.19 4.48 56.73 4.48 56.73 6.31 60.98 6.31 60.98 7.55 56.73 7.55 56.73 9.53 62.43 9.53 62.43 10.77 55.33 10.77"/><polygon class="cls-1" points="67.65 4.47 67.65 10.77 66.25 10.77 66.25 4.47 63.18 4.47 63.18 3.24 70.71 3.24 70.71 4.47 67.65 4.47"/><polygon class="cls-1" points="71.84 10.77 71.84 3.24 78.7 3.24 78.7 4.48 73.24 4.48 73.24 6.31 77.48 6.31 77.48 7.55 73.24 7.55 73.24 9.53 78.94 9.53 78.94 10.77 71.84 10.77"/><path class="cls-1" d="M27.72,19.69a5.3,5.3,0,0,0,2.15-.46V17h1.35V20a6.58,6.58,0,0,1-3.56,1c-2.52,0-4.42-1.6-4.42-4s1.93-4,4.42-4a5.63,5.63,0,0,1,3.5,1.11l-.74,1.11a4.27,4.27,0,0,0-2.72-.9,2.68,2.68,0,1,0,0,5.33"/><polygon class="cls-1" points="33.06 20.8 33.06 13.27 39.92 13.27 39.92 14.51 34.46 14.51 34.46 16.34 38.71 16.34 38.71 17.58 34.46 17.58 34.46 19.55 40.16 19.55 40.16 20.8 33.06 20.8"/><path class="cls-1" d="M42.9,20.8H41.54V13.27H43l4.91,5.67h0c-.09-1.42-.1-2.58-.1-3.7v-2h1.37V20.8H47.77l-4.9-5.68h0c0,1.12,0,3.07,0,3.7Z"/><polygon class="cls-1" points="51.15 20.8 51.15 13.27 58 13.27 58 14.51 52.54 14.51 52.54 16.34 56.79 16.34 56.79 17.58 52.54 17.58 52.54 19.55 58.25 19.55 58.25 20.8 51.15 20.8"/><path class="cls-1" d="M63.37,18H61.12V20.8h-1.4V13.27h4.84a2.35,2.35,0,0,1,2.6,2.4A2.32,2.32,0,0,1,65,18l2.25,2.81H65.5Zm1-1.26c.88,0,1.37-.45,1.37-1.1a1.09,1.09,0,0,0-1.22-1.16H61.12v2.26Z"/><path class="cls-1" d="M70.11,19l-.87,1.83H67.73l3.67-7.53h1.47l3.67,7.53H75L74.17,19Zm.58-1.22h2.9l-1.44-3.06Z"/><polygon class="cls-1" points="77.57 20.8 77.57 13.27 78.97 13.27 78.97 19.55 84 19.55 84 20.8 77.57 20.8"/><polygon class="cls-1" points="84.94 20.8 84.94 13.27 91.8 13.27 91.8 14.51 86.34 14.51 86.34 16.34 90.59 16.34 90.59 17.58 86.34 17.58 86.34 19.55 92.04 19.55 92.04 20.8 84.94 20.8"/><path class="cls-1" d="M1.26,11.76H3.14v-.4H14.86v.4h1.88V4.26H1.26Zm1.88.88v-.4H1.26v7.5H16.74v-7.5H14.86v.4ZM18,3V21H0V3Z"/></svg>