<svg id="Ebene_1" data-name="Ebene 1" xmlns="http://www.w3.org/2000/svg" viewBox="0 0 107 24"><defs><style>.cls-1{fill:#fff;}.cls-2{fill:#005ca8;}.cls-3{fill:#eb6608;}</style></defs><rect class="cls-1" y="5" width="20.84" height="14"/><path class="cls-2" d="M30.47,7.3v9.38H32A4.49,4.49,0,0,0,36.54,12,4.48,4.48,0,0,0,32,7.3ZM27.71,18.84V5.14h3.77c4.22,0,8,1.41,8,6.85s-3.73,6.85-7.95,6.85Z"/><polygon class="cls-2" points="40.17 18.84 40.17 16.6 46.64 7.3 40.43 7.3 40.43 5.14 49.58 5.14 49.58 7.38 43.05 16.68 49.72 16.68 49.72 18.84 40.17 18.84"/><path class="cls-2" d="M55.14,18.84V5.14H60c1.78,0,4.44.51,4.44,3.51a3.05,3.05,0,0,1-2.74,3.06,3.25,3.25,0,0,1,3.15,3.16c0,3.46-3.11,4-4.85,4ZM57.9,7.3v3.37H59c1.17,0,2.61-.25,2.61-1.66,0-1.59-1.4-1.71-2.67-1.71Zm0,5.41v4h1.3c1.28,0,2.84-.32,2.84-1.91,0-1.78-1.45-2.06-2.84-2.06Z"/><path class="cls-2" d="M65.38,18.84l5.36-13.7h3.12l5.4,13.7H76.2L75,15.7H69.44l-1.21,3.14Zm8.87-5.3-2-5.65-2,5.65Z"/><polygon class="cls-2" points="94.98 18.84 94.98 5.14 97.78 5.14 97.78 11.03 102.71 5.14 106.1 5.14 100.44 11.6 106.34 18.84 102.73 18.84 97.78 12.48 97.78 18.84 94.98 18.84"/><polygon class="cls-2" points="80.6 18.84 80.6 5.14 83.99 5.14 89.28 15.38 89.28 5.14 91.92 5.14 91.92 18.84 88.55 18.84 83.24 8.59 83.24 18.84 80.6 18.84"/><path class="cls-3" d="M20.84,16.53H12.9c-.22,1.14-.4,2.1-.47,2.47h8.41Z"/><polygon class="cls-3" points="0 16.53 0 19 8.35 19 7.8 16.53 0 16.53"/><path class="cls-2" d="M4.11,10.73,3.5,8.19H8.69l1.68,7.31h.07l1.06-4.69c.53-2.12.73-2.62,3.74-2.62H17.4s-.44,2-1,4.08c-.21.81-2,.72-1.92,0,0-.08.09-.65.16-1.05.1-.59-.59-.66-.71-.08-.09.41-.48,2.47-.86,4.4h7.75V5H0V15.5H7.56L6.49,10.74Z"/></svg>