<svg id="Ebene_1" data-name="Ebene 1" xmlns="http://www.w3.org/2000/svg" viewBox="0 0 36 24"><defs><style>.cls-1{fill:#004685;}.cls-2{fill:#ee1c25;}</style></defs><path class="cls-1" d="M9.76,18.64l-.06.05a4.32,4.32,0,0,1-3.1,1.44,3.89,3.89,0,0,1-4-4.1,3.9,3.9,0,0,1,4-4.11,4.33,4.33,0,0,1,3.1,1.45l.06.05,1.48-1.78,0-.05A5.63,5.63,0,0,0,6.68,9.43,6.9,6.9,0,0,0,2,11.14,6.45,6.45,0,0,0,0,16a6.41,6.41,0,0,0,2,4.88,6.85,6.85,0,0,0,4.69,1.72,5.63,5.63,0,0,0,4.52-2.16l0,0L9.76,18.64"/><path class="cls-1" d="M12.73,22.39h2.61V9.63H12.73V22.39"/><path class="cls-1" d="M25.58,19.62a3.86,3.86,0,0,1-1.93.64c-.85,0-1.23-.45-1.23-1.44V12.05h2.67V9.65H22.42v-4L19.86,7.05v2.6H17.65v2.4h2.21v7.2c0,2,1.16,3.3,2.9,3.33A4,4,0,0,0,25.08,22l0,0,.63-2.46-.15.1"/><path class="cls-1" d="M27.74,22.39h2.62V9.63H27.74V22.39"/><path class="cls-2" d="M31.88,7.4a12.68,12.68,0,0,0-20.76,0L11,7.57h3l0,0A10.24,10.24,0,0,1,29,7.54l0,0h3l-.12-.17"/></svg>