<svg id="Ebene_1" data-name="Ebene 1" xmlns="http://www.w3.org/2000/svg" viewBox="0 0 98.52 24"><defs><style>.cls-1{fill:#fff;}</style></defs><path class="cls-1" d="M25.13,8.6c0,.72.08,2.56.08,3.23s0,2.69-.11,3.58v.07h3.25c1.59,0,3.28-.5,3.28-1.91,0-.88-.65-1.53-1.85-1.89a1.76,1.76,0,0,0,1.49-1.53c0-1.16-1.33-1.59-2.58-1.62H25.11Zm2.5.7c1.35,0,1.85.29,1.85,1a.79.79,0,0,1-.19.52,1.65,1.65,0,0,1-1.4.43h0l-.37,1h.37a2.14,2.14,0,0,1,1.73.62.93.93,0,0,1,.23.63c0,.77-.67,1.16-2,1.16H27c0-1-.05-2.41-.05-2.83s0-1.56.05-2.48a3.91,3.91,0,0,1,.65,0"/><path class="cls-1" d="M39.1,8.53H37.52l.06,1.75c0,.87.06,1.76.12,2.62A4.69,4.69,0,0,0,37,11.8s-1.64-2.54-2.21-3.25l0,0H33V8.6c.06.72.08,2.56.08,3.23s0,2.69-.08,3.58l0,.07h1.63v-.07c-.09-1.7-.09-3.41-.09-5.07a2.35,2.35,0,0,0,.38.76s2.83,4.12,3,4.35l0,0h1.3v-.07c-.1-.89-.11-3-.11-3.58s.05-2.51.09-3.23l0-.07Z"/><path class="cls-1" d="M41,8.6c.07.72.09,2.56.09,3.23s0,2.69-.09,3.58v.07h1.94v-.07c-.07-.64-.1-1.87-.11-2.8l.37,0h.27c2.56,0,3.8-.67,3.8-2.09,0-1.61-1.74-2-3.2-2H41Zm2.4.77a2.24,2.24,0,0,1,1.84.55.94.94,0,0,1,.22.62c0,1-1.14,1.23-2.09,1.23l-.38,0h-.16c0-.23,0-.54,0-.88s0-1,0-1.44a4.06,4.06,0,0,1,.56,0"/><path class="cls-1" d="M50.94,8.6c.06.72.1,2.56.1,3.23s0,2.69-.11,3.58v.07h1.94v-.07c-.06-.64-.09-1.87-.09-2.8l.34,0h.29c2.55,0,3.8-.67,3.8-2.09,0-1.61-1.75-2-3.21-2H50.94Zm2.39.77a2.27,2.27,0,0,1,1.85.55.93.93,0,0,1,.21.62c0,1-1.13,1.23-2.07,1.23l-.38,0h-.16c0-.23,0-.54,0-.88s0-1,0-1.44a3.67,3.67,0,0,1,.55,0"/><path class="cls-1" d="M59.8,8.53h0v0c-.36,1-2.69,6-3.06,6.82l0,.09h1.65l0,0c.14-.48.34-1,.55-1.59l1.38,0h1.38c.29.75.52,1.31.62,1.6l0,0H64.2l-3.09-7H59.8Zm.47,2.05c.15.33.55,1.25,1,2.35h-1l-1,0c.37-.88.73-1.67,1-2.35"/><path class="cls-1" d="M65,8.6c.06.72.08,2.56.08,3.23s0,2.69-.1,3.58v.07h2v-.07c-.1-.9-.11-3-.11-3.58s0-1.56.06-2.43l.53,0a2.25,2.25,0,0,1,1.84.55.93.93,0,0,1,.21.62A1.38,1.38,0,0,1,68,11.79a2.1,2.1,0,0,1-.41,0l-.14,0,.08.13c.69,1,1.73,2.75,2.15,3.58l0,0h2.08l-.05-.1-2-3a.2.2,0,0,1,0-.05c1.07-.32,1.59-.91,1.59-1.83,0-1.6-1.75-2-3.22-2H65Z"/><path class="cls-1" d="M74.52,8.53H72.66V8.6c0,.72.09,2.56.09,3.23s0,2.68-.1,3.58v.07h1.92v-.07c-.07-.9-.09-3-.09-3.58s0-2.51.09-3.23V8.53Z"/><path class="cls-1" d="M76.34,8.6c.06.72.09,2.56.09,3.23s0,2.69-.1,3.58v.07h3.24c1.59,0,3.28-.5,3.28-1.91,0-.88-.64-1.53-1.85-1.89a1.76,1.76,0,0,0,1.49-1.53c0-1.16-1.33-1.59-2.56-1.62H76.33Zm2.5.7h0c1.37,0,1.86.29,1.86,1a.74.74,0,0,1-.19.52,1.65,1.65,0,0,1-1.4.43h0l-.37,1h.37a2.14,2.14,0,0,1,1.73.62.94.94,0,0,1,.24.63c0,.77-.68,1.16-2,1.16h-.8c-.06-1-.06-2.41-.06-2.83s0-1.56.06-2.48a3.56,3.56,0,0,1,.63,0"/><path class="cls-1" d="M87.62,8.53H86.31v0c-.39,1-2.85,6.38-3,6.82l0,.1h1.66v0c.14-.48.34-1,.55-1.6l1.37,0,1.15,0h.24c.3.75.52,1.32.62,1.6l0,0h1.92l-3.09-7Zm-.8,2c.15.33.55,1.25,1,2.36h-2c.37-.89.72-1.68,1-2.36"/><path class="cls-1" d="M91.3,10.33c0,1.22,1.22,1.71,2.31,2.16.84.33,1.73.69,1.73,1.27a.65.65,0,0,1-.13.43,1.53,1.53,0,0,1-1.27.3,6,6,0,0,1-2.2-.61l-.32-.15v1.51l.22.06.12,0a8.61,8.61,0,0,0,2,.28c2,0,3.27-.81,3.27-2.15s-1.26-1.76-2.38-2.2c-.82-.33-1.67-.66-1.67-1.2,0-.16,0-.62,1.06-.62a5.55,5.55,0,0,1,2,.49l.39.16V8.56L96,8.49a9.08,9.08,0,0,0-1.75-.21c-1.76,0-2.94.83-2.94,2.05"/><path class="cls-1" d="M0,2V22H20.07V2ZM4.72,19a5.25,5.25,0,0,1-1.18-1.65A14.14,14.14,0,0,1,2,16.53a7.84,7.84,0,0,1,1.16-.41,8.58,8.58,0,0,1,0-2.53A7.67,7.67,0,0,0,4,15.93c.49-.09.92-.16,1.5-.24A5.36,5.36,0,0,0,4.79,17a4.88,4.88,0,0,0,1.79,1.09,7.32,7.32,0,0,1-2-.31A3,3,0,0,0,4.72,19Zm2-6.21C6.44,12.1,6,10.7,6,10.7a21.29,21.29,0,0,0-2.67,2.18,10.37,10.37,0,0,1,2.06-3,3.42,3.42,0,0,0-2-.58A7.93,7.93,0,0,1,5.4,9,10.19,10.19,0,0,1,6.53,9a5.6,5.6,0,0,1,1.91-1,3.9,3.9,0,0,0-.55,1.07,9.15,9.15,0,0,1,3.3,1.19,11.12,11.12,0,0,0-3-.2,2.31,2.31,0,0,0-.71.13A12.66,12.66,0,0,0,6.74,12.81Zm3.9,5.81a4.21,4.21,0,0,1-.84.05,8.09,8.09,0,0,1-2.06.77,7.63,7.63,0,0,0,1.08-.83,4.71,4.71,0,0,1-1.11-.38A6,6,0,0,0,9.42,18a13.72,13.72,0,0,0,1-1.18c0,.31,0,.54.06.81a10.54,10.54,0,0,0,1.54-.9,13.68,13.68,0,0,1-1.48,1.33A5.29,5.29,0,0,0,10.64,18.62Zm6.3-12.17a11.4,11.4,0,0,1-.69,4.36,7.77,7.77,0,0,0-.6-3.55c-1.24.73-1.62.79-3,1.59a14.46,14.46,0,0,0,1.54-1.91,29.89,29.89,0,0,0-4.34.49A17.8,17.8,0,0,1,14.41,6a15.64,15.64,0,0,0-3-1.79A13,13,0,0,1,16.3,5.64a7.4,7.4,0,0,1,1.59-.2A2.11,2.11,0,0,1,16.94,6.45Z"/></svg>