<svg id="Ebene_1" data-name="Ebene 1" xmlns="http://www.w3.org/2000/svg" viewBox="0 0 50 24"><defs><style>.cls-1{fill:#fff;}</style></defs><path class="cls-1" d="M13.39,8.2l-.32.27.34,1.12-1-.56-.34.27,1.14.61-1.21,1-.33-.43.43-.34-.32-.38-.44.34L11,9.66l.43-.34-.32-.41L8.9,10.74,11,12.44l.36-.48a.72.72,0,0,1,.58.47l-.38.47.24.18a2.88,2.88,0,0,1,1.9-.77A2.64,2.64,0,0,1,16.34,15v0A2.82,2.82,0,0,1,16,16.43l.39.3a.81.81,0,0,1-.56.67l-.38-.31a2.73,2.73,0,0,1-1.93.77,2.61,2.61,0,0,1-2.62-2.61V15.2a3.27,3.27,0,0,1,.36-1.4L11,13.6l-.38.51A.67.67,0,0,1,10,13.6l.38-.45L8.64,11.68V14h.59a.56.56,0,0,1,.13.37.8.8,0,0,1-.11.37H8.64v.29a2.69,2.69,0,0,1,0,5.35v.46a.94.94,0,0,1-.43.13,1.05,1.05,0,0,1-.49-.13v-.46a2.75,2.75,0,0,1-2.34-2.7,2.71,2.71,0,0,1,2.34-2.63v-.31H7.11A.7.7,0,0,1,7,14.4.7.7,0,0,1,7.11,14h.61V11.68l-1.8,1.47.4.45a.69.69,0,0,1-.6.51l-.37-.51-.24.2a2.78,2.78,0,0,1,.38,1.4,2.62,2.62,0,0,1-2.57,2.67H2.86A2.74,2.74,0,0,1,1,17.09l-.39.3A.86.86,0,0,1,0,16.73l.38-.3A3.15,3.15,0,0,1,0,15a2.65,2.65,0,0,1,2.61-2.68h0a2.86,2.86,0,0,1,1.92.77l.22-.17-.38-.49A.74.74,0,0,1,5,12l.37.46,2.11-1.68L5.26,8.9l-.32.42.43.34-.32.41-.44-.34-.32.38.41.34-.32.43-1.19-1L4.31,9.3,4,9,3,9.59,3.3,8.47,3,8.2,2.59,9.43l-1.2-1,.32-.39.41.34L2.46,8,2,7.63l.32-.39.43.33.31-.38-.94-.74a1.24,1.24,0,0,1,.58-.73l5,4.07V7.07H7.21v.51H6.7V7.07H6.19v.51H5.67V6.06l1.19.5V6.13l-1.1-.45,1.1-.43V4.84L5.67,5.3V3.76h.52v.55h.53V3.76h.5v.55h.51V3.09A1.22,1.22,0,0,1,8.19,3a1.17,1.17,0,0,1,.45.09v6.7l5-4.07a1.38,1.38,0,0,1,.57.73l-.95.74.33.38L14,7.24l.33.38L13.9,8l.32.39.43-.33.33.39-1.21,1ZM3.21,15.56a.72.72,0,0,0,.69.74l-.62.49a1.38,1.38,0,0,1-.83-1.14.93.93,0,0,1,.07-.33H2.39a1.32,1.32,0,0,1-1.17-1.09l.65-.51a1.1,1.1,0,0,0,0,.18.74.74,0,0,0,.71.68.76.76,0,0,0,.74-.71.77.77,0,0,0-.76-.77H2.48a1.9,1.9,0,0,0-1.74,2A2,2,0,0,0,1,16l.41-.3a1.09,1.09,0,0,1,.56.7l-.4.31a2,2,0,0,0,1.33.47,1.78,1.78,0,0,0,1.82-1.53A.74.74,0,0,0,4,14.85H4a.72.72,0,0,0-.74.7Zm5.34,1.55a.72.72,0,0,0,.7.72.81.81,0,0,0,.58-.27v.81a1.22,1.22,0,0,1-.61.17,1.07,1.07,0,0,1-1-.51,1.14,1.14,0,0,1-1,.51,1.34,1.34,0,0,1-.62-.17v-.81a.71.71,0,0,0,1.27-.45.69.69,0,0,0-.64-.72h0c-.74,0-1,.7-1,1.35a2,2,0,0,0,1.61,1.93v-.49a1.17,1.17,0,0,1,.45-.09,1.27,1.27,0,0,1,.47.09v.49a2.05,2.05,0,0,0,1.62-1.93c0-.66-.27-1.35-1-1.35a.69.69,0,0,0-.67.71ZM13,13.88a.79.79,0,0,0,.76.71.73.73,0,0,0,.7-.68c0-.06,0-.11,0-.18l.63.51a1.24,1.24,0,0,1-1.28,1.08.92.92,0,0,1,.06.33,1.38,1.38,0,0,1-.83,1.14l-.63-.49a.73.73,0,0,0,0-1.46h-.07a.76.76,0,0,0-.72.78v0a1.79,1.79,0,0,0,1.84,1.51,2,2,0,0,0,1.31-.47l-.39-.31a1.05,1.05,0,0,1,.55-.7l.4.31a2,2,0,0,0-1.49-2.86.79.79,0,0,0-.85.73v0Z"/><path class="cls-1" d="M29.07,13.84C29.07,17.57,27,18,25,18c-3.51,0-4.25-1.79-4.25-4.35V6.44H19.46V5.75h4.9v.69H23v7c0,2.48.64,3.71,2.42,3.71s2.7-.9,2.7-3.47V6.44H26.77V5.75h3.48v.69H29.06Zm3.33,3.34V6.44H31.13V5.75h5.44c2.31,0,3.45,1.3,3.45,2.83s-1.48,2.55-2.79,2.82c2.56.24,3.25,1.88,3.25,3.09,0,2.46-2.1,3.39-4.16,3.39H31.06v-.69Zm5.41-8.46c0-1.13-.58-2.28-1.87-2.28H34.56v4.67h1.23A2.12,2.12,0,0,0,37.81,8.72Zm.43,5.77c0-1.62-.69-2.7-2.32-2.7H34.56v5.39h1.1a2.38,2.38,0,0,0,2.58-2.69ZM45.9,6.28a1.93,1.93,0,0,0-2.1,2.08c0,1.19,1.3,1.77,2.55,2.19a6.29,6.29,0,0,1,2.34,1.23,3.45,3.45,0,0,1,1.07,2.69c0,2.12-1.53,3.55-4.14,3.57a7.85,7.85,0,0,1-3.43-.76l-.1-3.18h.77c.06,2.14,1.07,3.25,2.83,3.25A2.12,2.12,0,0,0,47.9,15c0-1.25-1-1.78-2.6-2.3a6,6,0,0,1-2.23-1.25,3.17,3.17,0,0,1-.93-2.27c0-2.47,1.77-3.54,4-3.54A7,7,0,0,1,49,6.35l.07,2.76h-.77c-.16-2-1-2.83-2.43-2.83Z"/></svg>