<svg id="Ebene_1" data-name="Ebene 1" xmlns="http://www.w3.org/2000/svg" viewBox="0 0 83 24"><defs><style>.cls-1{fill:#373a36;}</style></defs><path class="cls-1" d="M61,16.38a2.58,2.58,0,0,1-2.56-2.58.61.61,0,0,1,0-.14,2.56,2.56,0,0,1,2.41-2.72H61a2.61,2.61,0,0,1,2.63,2.6v.13a2.61,2.61,0,0,1-2.5,2.72H61m.49-7.95a3.62,3.62,0,0,0-2.91,1.3V5H56V18.61h2.62v-1.1a3.59,3.59,0,0,0,3,1.35,4.91,4.91,0,0,0,4.8-5.21,4.91,4.91,0,0,0-4.8-5.22M42.14,11.07h-3V14.7c0,1.24.65,1.69,1.49,1.69a3.92,3.92,0,0,0,1.86-.65l1,2.09a5.55,5.55,0,0,1-3.29,1c-2.76,0-3.71-1.74-3.71-4.31V5.75h2.67V8.69h3Zm39.52,7.54H79V5h2.67ZM70.23,12.72h4.39a2.2,2.2,0,0,0-4.39,0m7.06.91a5.62,5.62,0,0,1-.05.91h-7a2.4,2.4,0,0,0,2.55,2.06,4,4,0,0,0,2.5-.91l1.57,1.71a6,6,0,0,1-4.25,1.46,4.89,4.89,0,0,1-5.15-4.64,5,5,0,0,1,0-.55,4.88,4.88,0,0,1,5-5.24c3,0,4.81,2.11,4.82,5.21m-30.8,0a2.64,2.64,0,0,0,5.27.31,1.6,1.6,0,0,0,0-.31,2.64,2.64,0,1,0-5.27-.31v.31m8,0a5.37,5.37,0,1,1-5.37-5.36,5.37,5.37,0,0,1,5.37,5.36M34.31,12.26v6.35H31.64V13.17c0-1.44-.72-2.23-1.93-2.23a2,2,0,0,0-2.11,2,2.44,2.44,0,0,0,0,.27v5.44H24.93V8.69h2.6V9.86a3.32,3.32,0,0,1,2.91-1.43,3.68,3.68,0,0,1,3.86,3.51c0,.11,0,.21,0,.32M15.5,13.65a2.64,2.64,0,0,0,5.27.31v-.31a2.64,2.64,0,1,0-5.27-.31,1.6,1.6,0,0,0,0,.31m8,0a5.16,5.16,0,0,1-5.09,5.22h-.26a5.14,5.14,0,0,1-5.35-4.93,2.62,2.62,0,0,1,0-.28,5.15,5.15,0,0,1,5.07-5.22h.29a5.16,5.16,0,0,1,5.35,5v.27m-14.82,5H5.12L0,5H3.06L6.92,15.76,10.82,5h3Z"/></svg>