<svg id="Ebene_1" data-name="Ebene 1" xmlns="http://www.w3.org/2000/svg" viewBox="0 0 110 24"><defs><style>.cls-1{fill:#fff;}</style></defs><path class="cls-1" d="M104.89,15.3l0,.14,0-.14-2.39-6.85h-1.36l3.11,8.84v.07a4.21,4.21,0,0,1-1.2,2.21,2.13,2.13,0,0,1-1.24.33,3.82,3.82,0,0,1-.69-.1v1.07A5.63,5.63,0,0,0,102,21a2.78,2.78,0,0,0,1.69-.51,5.47,5.47,0,0,0,1.49-2.38l3.1-9.66h-1.36Z"/><path class="cls-1" d="M100.15,13.16v-.84a4.18,4.18,0,0,0-1.1-3.2,3.69,3.69,0,0,0-2.62-.84,3.84,3.84,0,0,0-1.6.32,3.07,3.07,0,0,0-1.2.91,5.36,5.36,0,0,0-1,3.39,4.84,4.84,0,0,0,1.27,3.59,3.89,3.89,0,0,0,2.76,1,3.4,3.4,0,0,0,3.38-2.07l-1.12-.54a2.37,2.37,0,0,1-2.26,1.51,2.32,2.32,0,0,1-1.92-.91,3.84,3.84,0,0,1-.68-2.34Zm-1.36-1.1H94.11c.12-1.83.87-2.68,2.35-2.68S98.79,10.23,98.79,12.06Z"/><path class="cls-1" d="M19,9.62a3.49,3.49,0,0,0-2.85-1.35,3.5,3.5,0,0,0-2.85,1.35,5.32,5.32,0,0,0-1,3.27,5.35,5.35,0,0,0,1,3.27,3.5,3.5,0,0,0,2.85,1.35A3.49,3.49,0,0,0,19,16.16a5.28,5.28,0,0,0,1-3.27A5.26,5.26,0,0,0,19,9.62ZM16.18,16.4c-1.49,0-2.39-1.31-2.39-3.51s.9-3.52,2.39-3.52,2.39,1.32,2.39,3.52S17.68,16.4,16.18,16.4Z"/><path class="cls-1" d="M23.14,12.33c.35-1.83,1.31-2.7,3-2.7V8.33a3,3,0,0,0-3,1.85h0V8.47H21.75v8.9h1.39Z"/><path class="cls-1" d="M57.23,8.17A1.73,1.73,0,0,1,57.8,6.8a2.39,2.39,0,0,1,1.62-.49,3,3,0,0,1,1.88.6,2.83,2.83,0,0,1,.94,1.5l1.29-.16A4.26,4.26,0,0,0,56.78,6a3,3,0,0,0-1,2.24A2.68,2.68,0,0,0,57,10.55a9.67,9.67,0,0,0,2.54,1.16c1.56.56,3,1.08,3,2.5a2,2,0,0,1-.62,1.53,2.85,2.85,0,0,1-1.95.61,3.29,3.29,0,0,1-3.18-2.44l-1.32.36a6.51,6.51,0,0,0,1.48,2.23,4.23,4.23,0,0,0,3,1,4.3,4.3,0,0,0,3.23-1.11A3.49,3.49,0,0,0,64,14a2.74,2.74,0,0,0-1.25-2.36,10.33,10.33,0,0,0-2.63-1.18C58.64,9.93,57.21,9.44,57.23,8.17Z"/><path class="cls-1" d="M66.22,9.54H64.88V8.44h1.34V5.53h1.39V8.44h1.5v1.1h-1.5v6.08c0,.41.1.78,1,.78h.47v1a4.46,4.46,0,0,1-.92.14,2.51,2.51,0,0,1-1.42-.32,1.2,1.2,0,0,1-.55-1.07Z"/><path class="cls-1" d="M90.23,15.62c0,.41.13.78,1.06.78h.47v1a4.46,4.46,0,0,1-.92.14,2.49,2.49,0,0,1-1.42-.32,1.22,1.22,0,0,1-.58-1.07V5h1.39Z"/><path class="cls-1" d="M46.38,10.76A4,4,0,0,1,48.87,9.4c1,0,1.4.48,1.4,1.55v6.42h1.39V10.91A2.45,2.45,0,0,0,49,8.3a3.58,3.58,0,0,0-2.61,1.36h0V8.47H45v8.9h1.4Z"/><path class="cls-1" d="M41.27,16.27a1.06,1.06,0,0,0,.6,1,2,2,0,0,0,1.22.09v-.95a.47.47,0,0,1-.51-.54V11a2.4,2.4,0,0,0-1-2.07,3.72,3.72,0,0,0-2.13-.61,3.59,3.59,0,0,0-3.32,1.91l1.13.59a2.19,2.19,0,0,1,2.21-1.39c1.18,0,1.78.52,1.78,1.56v.32a.4.4,0,0,1,0,.13c-.05.05-.16.1-.47.13a8.23,8.23,0,0,0-3.57,1A2.81,2.81,0,0,0,35.73,15a2.62,2.62,0,0,0,2.64,2.57A3.23,3.23,0,0,0,41.27,16.27Zm0-1.49c-.07.78-1.51,1.72-2.7,1.66A1.49,1.49,0,0,1,37.19,15c-.11-1.45,1-2.06,3.42-2.33a1.88,1.88,0,0,0,.65-.16Z"/><path class="cls-1" d="M76,16.27a1.06,1.06,0,0,0,.6,1,2,2,0,0,0,1.22.09v-.95a.47.47,0,0,1-.51-.54V11a2.4,2.4,0,0,0-1-2.07,3.72,3.72,0,0,0-2.13-.61,3.59,3.59,0,0,0-3.32,1.91L72,10.8a2.21,2.21,0,0,1,2.21-1.39C75.36,9.41,76,9.93,76,11v.32a.28.28,0,0,1,0,.13c0,.05-.16.1-.46.13a8.19,8.19,0,0,0-3.57,1A2.81,2.81,0,0,0,70.47,15a2.65,2.65,0,0,0,.86,1.9,2.68,2.68,0,0,0,1.78.67A3.23,3.23,0,0,0,76,16.27Zm0-1.49c-.07.78-1.52,1.72-2.71,1.66A1.48,1.48,0,0,1,71.93,15c-.11-1.45,1-2.06,3.42-2.33a1.94,1.94,0,0,0,.65-.16Z"/><path class="cls-1" d="M5.27,15,2.32,5.29H0V17.37H1.39v-11l0,0,3.31,11H5.81l3.31-11,0,0V17.37h1.4V5.29H8.23L5.28,15v0Z"/><path class="cls-1" d="M81.11,10.76a4.08,4.08,0,0,1,2.5-1.36c1,0,1.39.48,1.39,1.55v6.42h1.4V10.91A2.45,2.45,0,0,0,83.72,8.3a3.59,3.59,0,0,0-2.61,1.36h0V8.47H79.72v8.9h1.39Z"/><path class="cls-1" d="M33,8.46l-.29.94a2.62,2.62,0,0,0-2.24-1.11c-1.57,0-3.79,1.06-3.79,4.61s2.22,4.6,3.72,4.6a2.87,2.87,0,0,0,2.22-1.17l.07,0V18a2,2,0,0,1-2.12,1.91,6.59,6.59,0,0,1-2.78-.56v1.2a7.37,7.37,0,0,0,2.61.46C32.83,21,34,19.63,34,17.66V8.46Zm-.31,6.32a2.46,2.46,0,0,1-2.12,1.62c-1.43,0-2.43-.89-2.43-3.57,0-2.25.9-3.44,2.43-3.44a2.65,2.65,0,0,1,2.12,1.15Z"/></svg>